<svg width="16" height="17" viewBox="0 0 16 17" fill="none" xmlns="http://www.w3.org/2000/svg">
<path d="M8 0.5C9.96621 0.5 11.4891 0.548015 12.6123 0.605469L13.6035 0.664062C14.5258 0.728593 15.246 1.41869 15.3271 2.33984C15.4143 3.33231 15.5 4.84015 15.5 6.93359C15.5 8.50366 15.4514 9.74389 15.3906 10.6846L15.3271 11.5264C15.2462 12.4479 14.5258 13.138 13.6035 13.2021C12.455 13.282 10.6214 13.3662 8 13.3662C6.64201 13.3662 5.49531 13.3444 4.5459 13.3115L4.35156 13.3047L4.2041 13.4316L1.72852 15.5527C1.24525 15.9662 0.5 15.6229 0.5 14.9873V6.93359C0.5 4.84025 0.585689 3.33292 0.672852 2.34082C0.753847 1.41915 1.47432 0.728232 2.39648 0.664062C3.54503 0.584209 5.37856 0.5 8 0.5Z" stroke="#0D47A1" stroke-opacity="0.5"/>
<path fill-rule="evenodd" clip-rule="evenodd" d="M8.6831 8.70006C9.20885 8.4066 9.47955 8.0866 9.52174 7.5433C9.36148 7.54286 9.20124 7.54073 9.04103 7.5369C8.72577 7.52884 8.48968 7.29227 8.48138 6.97701C8.47622 6.77082 8.47377 6.56458 8.47404 6.35833C8.47404 6.08336 8.47759 5.86789 8.48233 5.70173C8.49087 5.40495 8.70491 5.17976 9.00168 5.16744C9.16642 5.1608 9.38141 5.15582 9.65922 5.15582C9.93703 5.15582 10.152 5.16056 10.3168 5.16767C10.6135 5.17953 10.8276 5.40495 10.8361 5.70196C10.8409 5.86671 10.8444 6.07981 10.8444 6.35146V7.54377H10.839C10.7688 8.54764 10.0271 9.14593 9.18681 9.40455C9.06852 9.44081 8.93792 9.42351 8.84855 9.33794C8.74473 9.23862 8.65584 9.11583 8.59066 9.01367C8.52073 8.90368 8.56932 8.76359 8.6831 8.70006ZM6.20322 7.5433C6.16103 8.0866 5.89033 8.4066 5.36458 8.70006C5.25081 8.76359 5.20221 8.90392 5.27214 9.01367C5.33732 9.11583 5.42621 9.23862 5.53004 9.33794C5.61964 9.42327 5.75001 9.44081 5.86829 9.40431C6.70858 9.14594 7.45027 8.54764 7.52044 7.54354H7.52589V6.35146C7.52589 6.07981 7.52233 5.86671 7.51759 5.70196C7.50906 5.40495 7.29501 5.17953 6.99824 5.16744C6.77916 5.15909 6.55994 5.15522 6.3407 5.15582C6.0629 5.15582 5.8479 5.16056 5.68316 5.16767C5.38639 5.17953 5.17235 5.40495 5.16381 5.70196C5.15907 5.86789 5.15552 6.08313 5.15552 6.35809C5.15552 6.61291 5.1586 6.81629 5.16263 6.97677C5.17116 7.29204 5.40701 7.52884 5.72251 7.5369C5.85193 7.53998 6.01051 7.54259 6.20322 7.5433Z" fill="#0D47A1" fill-opacity="0.5"/>
</svg>
