<svg width="21" height="21" viewBox="0 0 21 21" fill="none" xmlns="http://www.w3.org/2000/svg">
<path d="M1.55742 13.047H14.9617V15.9193C14.9617 16.4272 14.7599 16.9142 14.4008 17.2733C14.0417 17.6324 13.5546 17.8342 13.0468 17.8342H3.47232C2.96445 17.8342 2.47739 17.6324 2.11828 17.2733C1.75917 16.9142 1.55742 16.4272 1.55742 15.9193V13.047ZM0.599976 4.42993H15.9191V11.1321C15.9191 11.6399 15.7174 12.127 15.3583 12.4861C14.9992 12.8452 14.5121 13.047 14.0042 13.047H2.51487C2.00701 13.047 1.51995 12.8452 1.16083 12.4861C0.801723 12.127 0.599976 11.6399 0.599976 11.1321V4.42993Z" stroke="#0D47A1" stroke-opacity="0.5" stroke-width="1.2" stroke-linejoin="round"/>
<path d="M8.25952 9.21704H8.26952V9.22704H8.25952V9.21704Z" stroke="#0D47A1" stroke-opacity="0.5" stroke-width="1.2" stroke-linejoin="round"/>
<path d="M5.38727 2.51499C5.38727 2.00713 5.58902 1.52007 5.94813 1.16096C6.30724 0.801845 6.7943 0.600098 7.30216 0.600098H9.21706C9.72492 0.600098 10.212 0.801845 10.5711 1.16096C10.9302 1.52007 11.1319 2.00713 11.1319 2.51499V4.42988H5.38727V2.51499Z" stroke="#0D47A1" stroke-opacity="0.5" stroke-width="1.2" stroke-linejoin="round"/>
<path d="M15.9192 11.1321C15.2905 11.1321 14.668 11.2559 14.0872 11.4965C13.5064 11.7371 12.9786 12.0897 12.5341 12.5342C11.6363 13.432 11.132 14.6497 11.132 15.9193C11.132 17.189 11.6363 18.4066 12.5341 19.3044C12.9786 19.7489 13.5064 20.1016 14.0872 20.3421C14.668 20.5827 15.2905 20.7065 15.9192 20.7065C17.1888 20.7065 18.4065 20.2022 19.3043 19.3044C20.2021 18.4066 20.7064 17.189 20.7064 15.9193C20.7064 15.2906 20.5826 14.6681 20.342 14.0873C20.1014 13.5065 19.7488 12.9788 19.3043 12.5342C18.8597 12.0897 18.332 11.7371 17.7512 11.4965C17.1704 11.2559 16.5479 11.1321 15.9192 11.1321ZM17.9298 17.93L15.4405 16.398V13.5257H16.1586V16.0151L18.3128 17.3076L17.9298 17.93Z" fill="#809DCA"/>
</svg>
