<svg width="23" height="26" viewBox="0 0 23 26" fill="none" xmlns="http://www.w3.org/2000/svg">
<path d="M4.3125 1H18.6875C19.598 1 20.4533 1.32631 21.0684 1.87988C21.6798 2.43022 21.9999 3.15293 22 3.88086V24.5811C21.9999 24.6127 21.9905 24.6525 21.96 24.6963C21.9281 24.7419 21.8721 24.7928 21.7881 24.8291C21.7039 24.8655 21.6037 24.8815 21.502 24.8711C21.4003 24.8606 21.3129 24.8252 21.249 24.7793L21.248 24.7783L18.5527 22.8379L17.9688 22.417L17.3848 22.8379L14.6895 24.7783L14.6885 24.7793C14.604 24.8401 14.4817 24.8806 14.3457 24.874C14.2095 24.8673 14.0965 24.815 14.0264 24.752L12.1689 23.0801L11.5 22.4775L10.8311 23.0801L8.97266 24.7529H8.97168C8.90159 24.8159 8.79031 24.8672 8.6543 24.874C8.51831 24.8808 8.39613 24.841 8.31152 24.7803L5.61621 22.8379L5.03125 22.417L4.44727 22.8379L1.75195 24.7783L1.75098 24.7793C1.68713 24.8252 1.59969 24.8606 1.49805 24.8711C1.39631 24.8815 1.2961 24.8655 1.21191 24.8291C1.12793 24.7928 1.07193 24.7419 1.04004 24.6963C1.0247 24.6743 1.01501 24.6532 1.00879 24.6338L1 24.5801V3.88086C1.00011 3.15293 1.32022 2.43022 1.93164 1.87988C2.54673 1.32631 3.40195 1 4.3125 1Z" stroke="#0D47A1" stroke-width="2"/>
<path fill-rule="evenodd" clip-rule="evenodd" d="M15.8125 7.76227H7.1875C6.82111 7.76263 6.4687 7.8889 6.20228 8.11526C5.93586 8.34163 5.77554 8.65101 5.75406 8.98019C5.73259 9.30937 5.85159 9.63351 6.08676 9.88638C6.32192 10.1392 6.65549 10.3018 7.01931 10.3407L7.1875 10.3498H15.8125C16.1789 10.3494 16.5313 10.2231 16.7977 9.99676C17.0641 9.77039 17.2245 9.46101 17.2459 9.13183C17.2674 8.80265 17.1484 8.47851 16.9132 8.22564C16.6781 7.97278 16.3445 7.81027 15.9807 7.77132L15.8125 7.76227ZM11.5 12.9372H7.1875C6.80625 12.9372 6.44062 13.0735 6.17103 13.3162C5.90145 13.5588 5.75 13.8879 5.75 14.231C5.75 14.5741 5.90145 14.9032 6.17103 15.1458C6.44062 15.3884 6.80625 15.5247 7.1875 15.5247H11.5C11.8812 15.5247 12.2469 15.3884 12.5165 15.1458C12.786 14.9032 12.9375 14.5741 12.9375 14.231C12.9375 13.8879 12.786 13.5588 12.5165 13.3162C12.2469 13.0735 11.8812 12.9372 11.5 12.9372Z" fill="#0D47A1"/>
</svg>
