<svg width="16" height="17" viewBox="0 0 16 17" fill="none" xmlns="http://www.w3.org/2000/svg">
<path d="M2.83301 1H12.2773C12.7956 1 13.2746 1.18631 13.6123 1.49023C13.9464 1.79097 14.1113 2.17484 14.1113 2.5498V15.9648L12.3896 14.7266L11.8057 14.3057L11.2217 14.7266L9.4541 15.998C9.45123 15.9987 9.44657 15.9993 9.44141 15.999C9.43841 15.9988 9.43616 15.9984 9.43457 15.998L8.22461 14.9082L7.55566 14.3066L6.88672 14.9082L5.6748 15.998C5.67325 15.9984 5.67144 15.9999 5.66895 16C5.66425 16.0002 5.66009 15.9996 5.65723 15.999L3.88965 14.7266L3.30566 14.3057L2.72168 14.7266L1 15.9648V2.5498L1.00781 2.40918C1.04388 2.0803 1.20657 1.75345 1.49902 1.49023C1.83664 1.18642 2.31492 1.00008 2.83301 1Z" stroke="#26C6DA" stroke-width="2"/>
<path fill-rule="evenodd" clip-rule="evenodd" d="M10.3889 5.09985H4.72228C4.48156 5.10009 4.25002 5.18305 4.07498 5.33177C3.89994 5.4805 3.79461 5.68376 3.7805 5.90003C3.7664 6.11631 3.84458 6.32927 3.99908 6.4954C4.15358 6.66154 4.37274 6.76831 4.61178 6.79389L4.72228 6.79984H10.3889C10.6297 6.7996 10.8612 6.71665 11.0362 6.56792C11.2113 6.4192 11.3166 6.21594 11.3307 5.99966C11.3448 5.78339 11.2666 5.57043 11.1121 5.40429C10.9576 5.23816 10.7385 5.13139 10.4994 5.1058L10.3889 5.09985ZM7.55561 8.49983H4.72228C4.47179 8.49983 4.23157 8.58939 4.05445 8.74879C3.87734 8.9082 3.77783 9.1244 3.77783 9.34983C3.77783 9.57526 3.87734 9.79146 4.05445 9.95087C4.23157 10.1103 4.47179 10.1998 4.72228 10.1998H7.55561C7.80609 10.1998 8.04632 10.1103 8.22343 9.95087C8.40055 9.79146 8.50005 9.57526 8.50005 9.34983C8.50005 9.1244 8.40055 8.9082 8.22343 8.74879C8.04632 8.58939 7.80609 8.49983 7.55561 8.49983Z" fill="#26C6DA"/>
</svg>
