<svg width="90" height="89" viewBox="0 0 90 89" fill="none" xmlns="http://www.w3.org/2000/svg">
<path d="M84.4425 31.9169C86.2055 30.1906 87.6046 28.1355 88.5586 25.8706C89.5125 23.6057 90.0025 21.1761 90 18.7226C90 8.43869 81.5565 0.103834 71.1465 0.102351H71.139C65.919 0.102351 61.1895 2.19978 57.777 5.58772L68.9025 16.5718L66.396 19.0772C60.1335 14.8227 52.7119 12.5498 45.114 12.5594C37.5163 12.5493 30.0947 14.8217 23.832 19.0757L21.1455 16.3894L32.0145 5.51948C30.2845 3.77139 28.2188 2.38268 25.9387 1.43485C23.6585 0.487029 21.2099 -0.000800165 18.7365 9.85178e-07C8.388 9.85178e-07 0 8.38825 0 18.736C0 23.9277 2.109 28.6254 5.5215 32.0177L16.5045 21.0337L18.717 23.2453C15.1044 26.7412 12.2357 30.9164 10.2797 35.5253C8.32365 40.1342 7.31989 45.0835 7.3275 50.0818C7.3275 57.5296 9.522 64.4657 13.29 70.3041L10.1265 89H12.9255C14.6745 89 15.321 86.9693 16.458 84.4432C17.4689 82.176 18.4699 79.9045 19.461 77.6288C26.1975 83.8232 35.208 87.6101 45.114 87.6101C55.0185 87.6101 64.0275 83.8202 70.767 77.6288C71.7578 79.9048 72.7593 82.1763 73.7715 84.4432C74.91 86.9693 75.5535 89 77.3025 89H80.1015L76.9425 70.2996C80.8424 64.2628 82.9106 57.2469 82.902 50.0833C82.9094 45.0852 81.9056 40.1362 79.9495 35.5276C77.9935 30.919 75.1249 26.744 71.5125 23.2483L73.5765 21.1865L84.4425 31.9169ZM74.505 50.0833C74.505 66.2027 61.3455 79.2723 45.114 79.2723C28.8825 79.2723 15.7245 66.2027 15.7245 50.0833C15.7245 33.9669 28.881 20.8987 45.114 20.8987C61.344 20.8987 74.505 33.9654 74.505 50.0833Z" fill="url(#paint0_radial_337_212)"/>
<path d="M47.8818 45.2268V29H42.3249V45.2268C41.4818 45.718 40.7815 46.4231 40.2938 47.2717C39.8062 48.1204 39.5482 49.0829 39.5457 50.0632C39.5457 51.3086 39.9583 52.4507 40.6359 53.3814L28 66.2375L29.7277 68L42.5021 55.0015C43.2796 55.4211 44.1583 55.6819 45.1041 55.6819C47.1564 55.6819 48.9273 54.5459 49.8924 52.8733H59V47.2576H49.8924C49.4107 46.415 48.7173 45.7147 47.8818 45.2268Z" fill="url(#paint1_radial_337_212)"/>
<defs>
<radialGradient id="paint0_radial_337_212" cx="0" cy="0" r="1" gradientUnits="userSpaceOnUse" gradientTransform="translate(46 20.5) rotate(91.048) scale(82.0137 82.9352)">
<stop stop-color="#FAFAFA"/>
<stop offset="0.682692" stop-color="#CDCDCD"/>
</radialGradient>
<radialGradient id="paint1_radial_337_212" cx="0" cy="0" r="1" gradientTransform="matrix(-0.516668 35.9326 -28.5618 -0.664691 43.8444 37.9831)" gradientUnits="userSpaceOnUse">
<stop stop-color="#FAFAFA"/>
<stop offset="0.682692" stop-color="#CDCDCD"/>
</radialGradient>
</defs>
</svg>
