<svg width="19" height="19" viewBox="0 0 19 19" fill="none" xmlns="http://www.w3.org/2000/svg">
<path d="M10.875 0C13.0841 0 14.875 1.79086 14.875 4V13.5C14.875 13.6694 14.8632 13.8362 14.8428 14H13.6279C13.6572 13.8376 13.6748 13.6708 13.6748 13.5V4C13.6748 2.4536 12.4214 1.2002 10.875 1.2002H4C2.4536 1.2002 1.2002 2.4536 1.2002 4V13.5C1.2002 13.6708 1.21778 13.8376 1.24707 14H0.0322266C0.0201236 13.903 0.00990806 13.8051 0.00488281 13.7061L0 13.5V4C0 1.79086 1.79086 1.10732e-07 4 0H10.875Z" fill="white"/>
<rect x="3" y="5" width="3" height="3" fill="white"/>
<rect x="3" y="9" width="3" height="3" fill="white"/>
<rect x="9" y="5" width="3" height="3" fill="white"/>
<rect x="9" y="9" width="3" height="3" fill="white"/>
<path d="M16.0231 14.8409C15.931 14.7461 15.8808 14.6207 15.8832 14.4912C15.8856 14.3616 15.9403 14.2381 16.0359 14.1464C16.1315 14.0548 16.2605 14.0024 16.3957 14.0001C16.5308 13.9978 16.6617 14.0459 16.7606 14.1342L18.8476 16.1342C18.9454 16.2279 19.0002 16.355 19.0002 16.4875C19.0002 16.62 18.9454 16.7471 18.8476 16.8409L16.7606 18.8409C16.7128 18.89 16.6552 18.9294 16.5912 18.9567C16.5272 18.984 16.4581 18.9987 16.388 18.9999C16.318 19.0011 16.2484 18.9888 16.1834 18.9636C16.1185 18.9385 16.0594 18.901 16.0099 18.8536C15.9603 18.8061 15.9213 18.7495 15.895 18.6873C15.8688 18.625 15.8559 18.5583 15.8571 18.4912C15.8584 18.424 15.8737 18.3578 15.9022 18.2965C15.9308 18.2352 15.9719 18.18 16.0231 18.1342L17.2197 16.9875L3.27128 16.8938C3.1329 16.8938 3.00019 16.8411 2.90233 16.7473C2.80448 16.6535 2.74951 16.5264 2.74951 16.3938C2.74951 16.2612 2.80448 16.134 2.90233 16.0402C3.00019 15.9464 3.1329 15.8938 3.27128 15.8938L17.2197 15.9875L16.0231 14.8409Z" fill="white"/>
</svg>
