<svg width="20" height="19" viewBox="0 0 20 19" fill="none" xmlns="http://www.w3.org/2000/svg">
<path d="M0.600098 9.09998C0.600098 6.84564 1.54831 4.68363 3.23614 3.08957C4.92396 1.49551 7.21315 0.599976 9.6001 0.599976C11.987 0.599976 14.2762 1.49551 15.9641 3.08957C17.6519 4.68363 18.6001 6.84564 18.6001 9.09998V14.5081C18.6001 15.4091 18.6001 15.8575 18.4583 16.2177C18.3456 16.5031 18.1693 16.7623 17.9412 16.9777C17.7131 17.1931 17.4387 17.3596 17.1365 17.4661C16.7551 17.6 16.2792 17.6 15.3263 17.6H9.6001C7.21315 17.6 4.92396 16.7044 3.23614 15.1104C1.54831 13.5163 0.600098 11.3543 0.600098 9.09998Z" stroke="#26C6DA" stroke-width="1.2"/>
<path d="M6.2251 8.03748H12.9751M9.6001 12.2875H12.9751" stroke="#26C6DA" stroke-width="1.2" stroke-linecap="round" stroke-linejoin="round"/>
</svg>
