<svg width="17" height="17" viewBox="0 0 17 17" fill="none" xmlns="http://www.w3.org/2000/svg">
<path d="M0.600098 8.09998C0.600098 6.11085 1.39027 4.2032 2.7968 2.79667C4.20332 1.39015 6.11097 0.599976 8.1001 0.599976C10.0892 0.599976 11.9969 1.39015 13.4034 2.79667C14.8099 4.2032 15.6001 6.11085 15.6001 8.09998V12.8719C15.6001 13.6669 15.6001 14.0625 15.482 14.3803C15.388 14.6321 15.2411 14.8608 15.051 15.0509C14.861 15.2409 14.6322 15.3879 14.3804 15.4819C14.0626 15.6 13.666 15.6 12.872 15.6H8.1001C6.11097 15.6 4.20332 14.8098 2.7968 13.4033C1.39027 11.9968 0.600098 10.0891 0.600098 8.09998Z" stroke="#0D47A1" stroke-opacity="0.5" stroke-width="1.2"/>
<path d="M5.2876 7.16248H10.9126M8.1001 10.9125H10.9126" stroke="#0D47A1" stroke-opacity="0.5" stroke-width="1.2" stroke-linecap="round" stroke-linejoin="round"/>
</svg>
