<svg width="15" height="14" viewBox="0 0 15 14" fill="none" xmlns="http://www.w3.org/2000/svg">
<path d="M10.875 0C13.0841 0 14.875 1.79086 14.875 4V13.5C14.875 13.6694 14.8632 13.8362 14.8428 14H13.6279C13.6572 13.8376 13.6748 13.6708 13.6748 13.5V4C13.6748 2.4536 12.4214 1.2002 10.875 1.2002H4C2.4536 1.2002 1.2002 2.4536 1.2002 4V13.5C1.2002 13.6708 1.21778 13.8376 1.24707 14H0.0322266C0.0201236 13.903 0.00990806 13.8051 0.00488281 13.7061L0 13.5V4C0 1.79086 1.79086 1.10732e-07 4 0H10.875Z" fill="#0D47A1" fill-opacity="0.5"/>
<rect x="3" y="5" width="3" height="3" fill="#0D47A1" fill-opacity="0.5"/>
<rect x="3" y="9" width="3" height="3" fill="#0D47A1" fill-opacity="0.5"/>
<rect x="9" y="5" width="3" height="3" fill="#0D47A1" fill-opacity="0.5"/>
<rect x="9" y="9" width="3" height="3" fill="#0D47A1" fill-opacity="0.5"/>
</svg>
