<svg width="19" height="20" viewBox="0 0 19 20" fill="none" xmlns="http://www.w3.org/2000/svg">
<path d="M1.95001 7.8001C1.95001 4.4062 1.95001 2.7088 3.00481 1.6549C4.05961 0.600998 5.75611 0.600098 9.15001 0.600098H10.5C13.8939 0.600098 15.5913 0.600098 16.6452 1.6549C17.6991 2.7097 17.7 4.4062 17.7 7.8001V11.4001C17.7 14.794 17.7 16.4914 16.6452 17.5453C15.5904 18.5992 13.8939 18.6001 10.5 18.6001H9.15001C5.75611 18.6001 4.05871 18.6001 3.00481 17.5453C1.95091 16.4905 1.95001 14.794 1.95001 11.4001V7.8001Z" stroke="#0D47A1" stroke-opacity="0.5" stroke-width="1.2"/>
<path d="M2.85001 4.2002H0.600006M2.85001 9.6002H0.600006M2.85001 15.0002H0.600006" stroke="#0D47A1" stroke-opacity="0.5" stroke-width="1.2" stroke-linecap="round" stroke-linejoin="round"/>
<path d="M11.5208 10.5066C11.5208 10.8571 11.6204 10.9968 11.8808 10.9968C12.4613 10.9968 12.8308 10.2563 12.8308 9.02479C12.8308 7.14244 11.4608 6.24132 9.75042 6.24132C7.99084 6.24132 6.39042 7.42279 6.39042 9.65558C6.39042 11.7882 7.79042 12.9497 9.94042 12.9497C10.6704 12.9497 11.1604 12.8696 11.91 12.6193L12.0708 13.2897C11.3308 13.5304 10.54 13.6001 9.93042 13.6001C7.11042 13.6001 5.60001 12.0482 5.60001 9.65517C5.60001 7.24215 7.35042 5.6001 9.76042 5.6001C12.2704 5.6001 13.6 7.10197 13.6 8.94428C13.6 10.5062 13.1104 11.6977 11.5704 11.6977C10.87 11.6977 10.4104 11.4174 10.3504 10.7962C10.1704 11.487 9.69042 11.6977 9.04001 11.6977C8.17001 11.6977 7.44001 11.0265 7.44001 9.67519C7.44001 8.31349 8.08042 7.47244 9.23042 7.47244C9.84042 7.47244 10.2204 7.71274 10.3896 8.09321L10.68 7.56255H11.52V10.5066H11.5208ZM10.2913 9.185C10.2913 8.63472 9.88084 8.40402 9.54084 8.40402C9.17084 8.40402 8.76126 8.70398 8.76126 9.5855C8.76126 10.2864 9.07126 10.6769 9.54084 10.6769C9.87084 10.6769 10.2913 10.4666 10.2913 9.88587V9.185Z" fill="#0D47A1" fill-opacity="0.5"/>
</svg>
