<svg width="16" height="15" viewBox="0 0 16 15" fill="none" xmlns="http://www.w3.org/2000/svg">
<path d="M4.08966 1.5769V0.5M11.269 1.5769V0.5" stroke="#0D47A1" stroke-opacity="0.5" stroke-linecap="round"/>
<path d="M5.52557 9.11523L6.60247 8.03833V10.9101" stroke="#0D47A1" stroke-opacity="0.5" stroke-linecap="round" stroke-linejoin="round"/>
<path d="M14.4997 5.1665H6.78191M0.5 5.1665H3.28199M8.39726 10.192V8.75617C8.39726 8.56576 8.4729 8.38315 8.60754 8.24851C8.74217 8.11387 8.92478 8.03823 9.11519 8.03823C9.3056 8.03823 9.48821 8.11387 9.62285 8.24851C9.75748 8.38315 9.83312 8.56576 9.83312 8.75617V10.192C9.83312 10.3824 9.75748 10.565 9.62285 10.6997C9.48821 10.8343 9.3056 10.91 9.11519 10.91C8.92478 10.91 8.74217 10.8343 8.60754 10.6997C8.4729 10.565 8.39726 10.3824 8.39726 10.192Z" stroke="#0D47A1" stroke-opacity="0.5" stroke-linecap="round"/>
<path d="M9.11519 14.4999H6.24346C3.53614 14.4999 2.18212 14.4999 1.34142 13.6585C0.500718 12.8171 0.5 11.4638 0.5 8.75647V7.32061C0.5 4.61329 0.5 3.25926 1.34142 2.41857C2.18283 1.57787 3.53614 1.57715 6.24346 1.57715H9.11519C11.8225 1.57715 13.1765 1.57715 14.0172 2.41857C14.8579 3.25998 14.8587 4.61329 14.8587 7.32061V8.75647C14.8587 11.4638 14.8587 12.8178 14.0172 13.6585C13.5484 14.128 12.9202 14.3355 11.9869 14.4267" stroke="#0D47A1" stroke-opacity="0.5" stroke-linecap="round"/>
</svg>
