<svg width="14" height="13" viewBox="0 0 14 13" fill="none" xmlns="http://www.w3.org/2000/svg">
<path d="M3.5769 1.42307V0.5M9.7307 1.42307V0.5" stroke="#0D47A1" stroke-opacity="0.5" stroke-linecap="round"/>
<path d="M4.80774 7.8845L5.73081 6.96143V9.42295" stroke="#0D47A1" stroke-opacity="0.5" stroke-linecap="round" stroke-linejoin="round"/>
<path d="M12.4999 4.5H5.88457M0.5 4.5H2.8846M7.26918 8.80766V7.5769C7.26918 7.41369 7.33401 7.25717 7.44942 7.14176C7.56483 7.02635 7.72135 6.96152 7.88456 6.96152C8.04777 6.96152 8.20429 7.02635 8.3197 7.14176C8.4351 7.25717 8.49994 7.41369 8.49994 7.5769V8.80766C8.49994 8.97087 8.4351 9.12739 8.3197 9.2428C8.20429 9.3582 8.04777 9.42304 7.88456 9.42304C7.72135 9.42304 7.56483 9.3582 7.44942 9.2428C7.33401 9.12739 7.26918 8.97087 7.26918 8.80766Z" stroke="#0D47A1" stroke-opacity="0.5" stroke-linecap="round"/>
<path d="M7.88456 12.4999H5.42304C3.10244 12.4999 1.94184 12.4999 1.22123 11.7787C0.500615 11.0575 0.5 9.89749 0.5 7.57689V6.34613C0.5 4.02554 0.5 2.86493 1.22123 2.14432C1.94245 1.42371 3.10244 1.4231 5.42304 1.4231H7.88456C10.2052 1.4231 11.3658 1.4231 12.0864 2.14432C12.807 2.86555 12.8076 4.02554 12.8076 6.34613V7.57689C12.8076 9.89749 12.8076 11.0581 12.0864 11.7787C11.6845 12.1812 11.1461 12.359 10.3461 12.4372" stroke="#0D47A1" stroke-opacity="0.5" stroke-linecap="round"/>
</svg>
