<svg width="19" height="15" viewBox="0 0 19 15" fill="none" xmlns="http://www.w3.org/2000/svg">
<mask id="path-1-inside-1_493_624" fill="white">
<path d="M9.5 0L0 5L9.5 10L17.2727 5.90833V11.6667H19V5M3.45455 8.48333V11.8167L9.5 15L15.5455 11.8167V8.48333L9.5 11.6667L3.45455 8.48333Z"/>
</mask>
<path d="M0 5L-0.558896 3.9381L-2.57651 5L-0.558896 6.0619L0 5ZM9.5 10L8.9411 11.0619L9.50005 11.3561L10.059 11.0619L9.5 10ZM17.2727 5.90833H18.4727V3.92053L16.7138 4.84647L17.2727 5.90833ZM17.2727 11.6667H16.0727V12.8667H17.2727V11.6667ZM19 11.6667V12.8667H20.2V11.6667H19ZM3.45455 8.48333L4.01365 7.42154L2.25455 6.49526V8.48333H3.45455ZM3.45455 11.8167H2.25455V12.541L2.89544 12.8785L3.45455 11.8167ZM9.5 15L8.9409 16.0618L9.5 16.3562L10.0591 16.0618L9.5 15ZM15.5455 11.8167L16.1046 12.8785L16.7455 12.541V11.8167H15.5455ZM15.5455 8.48333H16.7455V6.49526L14.9864 7.42154L15.5455 8.48333ZM9.5 11.6667L8.9409 12.7285L9.5 13.0229L10.0591 12.7285L9.5 11.6667ZM9.5 0L8.9411 -1.0619L-0.558896 3.9381L0 5L0.558896 6.0619L10.0589 1.0619L9.5 0ZM0 5L-0.558896 6.0619L8.9411 11.0619L9.5 10L10.0589 8.9381L0.558896 3.9381L0 5ZM9.5 10L10.059 11.0619L17.8317 6.97019L17.2727 5.90833L16.7138 4.84647L8.94102 8.93814L9.5 10ZM17.2727 5.90833H16.0727V11.6667H17.2727H18.4727V5.90833H17.2727ZM17.2727 11.6667V12.8667H19V11.6667V10.4667H17.2727V11.6667ZM19 11.6667H20.2V5H19H17.8V11.6667H19ZM3.45455 8.48333H2.25455V11.8167H3.45455H4.65455V8.48333H3.45455ZM3.45455 11.8167L2.89544 12.8785L8.9409 16.0618L9.5 15L10.0591 13.9382L4.01365 10.7549L3.45455 11.8167ZM9.5 15L10.0591 16.0618L16.1046 12.8785L15.5455 11.8167L14.9864 10.7549L8.9409 13.9382L9.5 15ZM15.5455 11.8167H16.7455V8.48333H15.5455H14.3455V11.8167H15.5455ZM15.5455 8.48333L14.9864 7.42154L8.9409 10.6049L9.5 11.6667L10.0591 12.7285L16.1046 9.54513L15.5455 8.48333ZM9.5 11.6667L10.0591 10.6049L4.01365 7.42154L3.45455 8.48333L2.89544 9.54513L8.9409 12.7285L9.5 11.6667Z" fill="#0D47A1" fill-opacity="0.5" mask="url(#path-1-inside-1_493_624)"/>
</svg>
