<svg width="19" height="19" viewBox="0 0 19 19" fill="none" xmlns="http://www.w3.org/2000/svg">
<path d="M17.6 9.1001C17.6014 10.2197 17.3809 11.3284 16.9513 12.3623C16.5217 13.3962 15.8916 14.3347 15.0972 15.1236C14.3092 15.9101 13.374 16.5336 12.345 16.9585C11.316 17.3835 10.2133 17.6015 9.1 17.6001C4.40545 17.6001 0.600007 13.7946 0.600007 9.1001C0.596947 6.92058 1.43415 4.82377 2.93751 3.24573C3.73065 2.40867 4.68629 1.7423 5.74591 1.28739C6.80554 0.83248 7.94686 0.598613 9.1 0.600105C10.2133 0.598732 11.316 0.816736 12.345 1.24166C13.374 1.66658 14.3092 2.2901 15.0972 3.07658C15.8916 3.8655 16.5217 4.80401 16.9513 5.83789C17.3809 6.87177 17.6014 7.98052 17.6 9.1001Z" stroke="#0D47A1" stroke-opacity="0.5" stroke-width="1.2" stroke-linecap="round" stroke-linejoin="round"/>
<path d="M17.6 9.09967C16.3599 9.09967 12.9386 8.63217 9.87648 9.97644C6.55001 11.4372 4.14154 13.7033 3.09179 15.1121" stroke="#0D47A1" stroke-opacity="0.5" stroke-width="1.2" stroke-linecap="round" stroke-linejoin="round"/>
<path d="M5.9125 1.21777C7.24275 2.4456 10.1455 5.57147 11.225 8.67482C12.3045 11.7782 12.704 15.5938 12.9505 16.6797" stroke="#0D47A1" stroke-opacity="0.5" stroke-width="1.2" stroke-linecap="round" stroke-linejoin="round"/>
<path d="M0.665428 8.03736C2.27108 8.13426 6.5215 8.22138 9.2415 7.05986C11.9615 5.89833 14.302 3.76186 15.1048 3.08398M1.23748 12.3354C1.98658 14.1483 3.33736 15.6478 5.06248 16.5815" stroke="#0D47A1" stroke-opacity="0.5" stroke-width="1.2" stroke-linecap="round" stroke-linejoin="round"/>
<path d="M0.600007 9.1001C0.596947 6.92058 1.43415 4.82377 2.93751 3.24573C3.73065 2.40867 4.68629 1.7423 5.74591 1.28739C6.80554 0.83248 7.94686 0.598613 9.1 0.600105M12.5 1.3073C13.4682 1.73051 14.3489 2.33052 15.0972 3.07658C15.8916 3.8655 16.5217 4.80401 16.9513 5.83789C17.3809 6.87177 17.6014 7.98052 17.6 9.1001C17.6 10.1464 17.4109 11.149 17.0645 12.0751M9.1 17.6001C10.2133 17.6015 11.316 17.3835 12.345 16.9585C13.374 16.5336 14.3092 15.9101 15.0972 15.1236" stroke="#0D47A1" stroke-opacity="0.5" stroke-width="1.2" stroke-linecap="round" stroke-linejoin="round"/>
</svg>
