<svg width="14" height="16" viewBox="0 0 14 16" fill="none" xmlns="http://www.w3.org/2000/svg">
<path fill-rule="evenodd" clip-rule="evenodd" d="M13.9044 2.44165C13.9777 2.55289 14.0103 2.68601 13.9968 2.81853C13.9833 2.95106 13.9245 3.07486 13.8303 3.16905L6.73981 10.2595C6.66727 10.332 6.57676 10.3839 6.47756 10.4099L3.52427 11.1813C3.42664 11.2067 3.32406 11.2062 3.2267 11.1798C3.12933 11.1533 3.04057 11.1019 2.96924 11.0306C2.8979 10.9592 2.84646 10.8704 2.82002 10.7731C2.79358 10.6757 2.79307 10.5731 2.81853 10.4755L3.58983 7.52266C3.61289 7.43424 3.6553 7.35203 3.71401 7.282L10.8308 0.169192C10.9392 0.0608531 11.0863 0 11.2396 0C11.3928 0 11.5399 0.0608531 11.6483 0.169192L13.8303 2.35063C13.8573 2.37904 13.8821 2.40947 13.9044 2.44165ZM12.6032 2.75945L11.2396 1.39644L4.66964 7.96697L4.18758 9.81286L6.0333 9.33076L12.6032 2.75945Z" fill="#26C6DA"/>
<path d="M12.6652 11.9013C12.8678 9.99929 12.9325 8.08259 12.8587 6.16931C12.8569 6.12422 12.8637 6.07922 12.8787 6.03717C12.8936 5.99512 12.9163 5.95694 12.9454 5.92505L13.675 5.12387C13.6949 5.10186 13.7202 5.08663 13.7478 5.08002C13.7755 5.07342 13.8042 5.07571 13.8307 5.08663C13.8572 5.09756 13.8802 5.11664 13.897 5.14159C13.9139 5.16654 13.9238 5.19629 13.9256 5.22728C14.0625 7.49992 14.0104 9.78155 13.7699 12.0438C13.5949 13.6901 12.3908 14.9806 10.8984 15.1638C8.30738 15.4787 5.69265 15.4787 3.10165 15.1638C1.60992 14.9806 0.405124 13.6901 0.23015 12.0438C-0.0767166 9.15774 -0.0767166 6.24228 0.23015 3.35624C0.405124 1.70992 1.60918 0.419403 3.10165 0.236207C5.06822 -0.00231582 7.04947 -0.0603254 9.02482 0.0627816C9.05309 0.0650107 9.08018 0.0760902 9.1029 0.094708C9.12561 0.113326 9.14299 0.138702 9.15297 0.167831C9.16296 0.19696 9.16513 0.228621 9.15924 0.259066C9.15335 0.28951 9.13963 0.317462 9.11972 0.339611L8.3835 1.1473C8.35471 1.17893 8.32031 1.20371 8.28242 1.2201C8.24454 1.23649 8.20399 1.24414 8.16329 1.24256C6.51495 1.18056 4.86467 1.24995 3.22547 1.45019C2.74647 1.50841 2.29933 1.74226 1.95628 2.11397C1.61323 2.48567 1.3943 2.97353 1.33486 3.49872C1.03745 6.29006 1.03745 9.10997 1.33486 11.9013C1.3943 12.4265 1.61323 12.9144 1.95628 13.2861C2.29933 13.6578 2.74647 13.8916 3.22547 13.9498C5.71292 14.2552 8.28711 14.2552 10.7753 13.9498C11.2543 13.8916 11.7014 13.6578 12.0445 13.2861C12.3875 12.9144 12.6057 12.4265 12.6652 11.9013Z" fill="#26C6DA"/>
</svg>
