<svg width="14" height="14" viewBox="0 0 14 14" fill="none" xmlns="http://www.w3.org/2000/svg">
<path d="M9.947 8.2327C9.947 8.8207 10.1143 9.0552 10.5518 9.0552C11.5269 9.0552 12.1478 7.8127 12.1478 5.7463C12.1478 2.5879 9.8462 1.0759 6.9727 1.0759C4.0166 1.0759 1.3279 3.0583 1.3279 6.8047C1.3279 10.3831 3.6799 12.3319 7.2919 12.3319C8.5183 12.3319 9.3415 12.1975 10.6008 11.7775L10.871 12.9024C9.6278 13.3063 8.2992 13.4232 7.2751 13.4232C2.5375 13.4232 0 10.8192 0 6.804C0 2.7552 2.9407 0 6.9895 0C11.2063 0 13.44 2.52 13.44 5.6112C13.44 8.232 12.6175 10.2312 10.0303 10.2312C8.8536 10.2312 8.0815 9.7608 7.9807 8.7185C7.6783 9.8777 6.8719 10.2312 5.7792 10.2312C4.3176 10.2312 3.0912 9.1049 3.0912 6.8376C3.0912 4.5528 4.1671 3.1416 6.0991 3.1416C7.1239 3.1416 7.7623 3.5448 8.0465 4.1832L8.5344 3.2928H9.9456V8.2327H9.947ZM7.8813 6.0151C7.8813 5.0918 7.1918 4.7047 6.6206 4.7047C5.999 4.7047 5.3109 5.208 5.3109 6.6871C5.3109 7.8631 5.8317 8.5183 6.6206 8.5183C7.175 8.5183 7.8813 8.1655 7.8813 7.1911V6.0151Z" fill="#0D47A1" fill-opacity="0.35"/>
</svg>
