<svg width="13" height="13" viewBox="0 0 13 13" fill="none" xmlns="http://www.w3.org/2000/svg">
<path d="M11.9926 0H8.99259C8.85998 0 8.7328 0.0526785 8.63903 0.146447C8.54526 0.240215 8.49259 0.367392 8.49259 0.5C8.49259 0.632608 8.54526 0.759785 8.63903 0.853553C8.7328 0.947321 8.85998 1 8.99259 1H10.7857L8.99259 2.79313L7.84634 1.64687C7.79992 1.60042 7.74481 1.56356 7.68415 1.5384C7.62349 1.51325 7.55848 1.50028 7.49281 1.50026C7.42714 1.50023 7.36211 1.51313 7.30143 1.53824C7.24075 1.56334 7.1856 1.60015 7.13915 1.64656C7.09269 1.69298 7.05583 1.74809 7.03068 1.80874C7.00552 1.8694 6.99256 1.93442 6.99253 2.00009C6.9925 2.06576 7.0054 2.13079 7.03051 2.19147C7.05561 2.25215 7.09242 2.3073 7.13883 2.35375L8.28571 3.5L7.30071 4.485C6.40251 3.76825 5.26396 3.42261 4.11889 3.51905C2.97381 3.6155 1.90912 4.14671 1.14346 5.0036C0.3778 5.86049 -0.0307176 6.97801 0.00180265 8.12668C0.0343229 9.27535 0.505412 10.368 1.31833 11.1802C2.13124 11.9924 3.22428 12.4625 4.37298 12.494C5.52168 12.5255 6.63884 12.116 7.49506 11.3496C8.35127 10.5832 8.88154 9.518 8.97697 8.37284C9.0724 7.22768 8.72575 6.08944 8.00821 5.19187L8.99259 4.20813L10.1388 5.35437C10.2326 5.4482 10.3597 5.50094 10.4924 5.50099C10.625 5.50105 10.7522 5.44843 10.846 5.35469C10.9398 5.26095 10.9926 5.13378 10.9926 5.00116C10.9927 4.86854 10.9401 4.74132 10.8463 4.6475L9.69946 3.5L11.4926 1.7075V3.5C11.4926 3.63261 11.5453 3.75979 11.639 3.85355C11.7328 3.94732 11.86 4 11.9926 4C12.1252 4 12.2524 3.94732 12.3461 3.85355C12.4399 3.75979 12.4926 3.63261 12.4926 3.5V0.5C12.4926 0.367392 12.4399 0.240215 12.3461 0.146447C12.2524 0.0526785 12.1252 0 11.9926 0ZM6.96759 10.4769C6.3951 11.0494 5.64182 11.4058 4.83607 11.4852C4.03031 11.5647 3.22194 11.3623 2.54864 10.9126C1.87535 10.4629 1.37879 9.79373 1.14356 9.01899C0.908326 8.24426 0.94897 7.41193 1.25857 6.6638C1.56816 5.91567 2.12756 5.29802 2.84147 4.91606C3.55537 4.53411 4.37962 4.41147 5.17379 4.56906C5.96797 4.72664 6.68295 5.1547 7.19693 5.78029C7.71091 6.40589 7.99209 7.19034 7.99259 8C7.9926 8.92882 7.62394 9.81968 6.96759 10.4769Z" fill="#0D47A1" fill-opacity="0.5"/>
</svg>
