<svg width="20" height="20" viewBox="0 0 20 20" fill="none" xmlns="http://www.w3.org/2000/svg">
<path opacity="0.7" d="M10.0005 3.97769C11.4221 3.95363 12.7958 4.49119 13.8235 5.47369L16.6915 2.60569C14.8821 0.904573 12.4838 -0.0291378 10.0005 0.000693409C8.14647 0.000381498 6.32887 0.515493 4.7507 1.4885C3.17253 2.4615 1.89593 3.85408 1.06348 5.51069L4.40448 8.10069C4.78871 6.91444 5.53532 5.87858 6.5392 5.13895C7.54307 4.39932 8.75365 3.99317 10.0005 3.97769Z" fill="#26C6DA"/>
<path d="M1.06349 5.51074C0.364172 6.90417 0 8.44168 0 10.0007C0 11.5598 0.364172 13.0973 1.06349 14.4907L4.40449 11.9007C3.98542 10.6687 3.98542 9.33275 4.40449 8.10074L1.06349 5.51074Z" fill="#26C6DA"/>
<path opacity="0.5" d="M13.3865 15.0686C12.6133 15.5649 11.737 15.8781 10.8245 15.9842C9.91191 16.0904 8.98715 15.9867 8.12075 15.6811C7.25434 15.3755 6.46917 14.8761 5.82512 14.2209C5.18107 13.5658 4.69516 12.7721 4.40445 11.9006L1.06445 14.4906C1.89675 16.1469 3.17304 17.5393 4.75083 18.5123C6.32861 19.4853 8.14578 20.0006 9.99945 20.0006C12.4337 20.0663 14.801 19.1995 16.6175 17.5776L13.3865 15.0686Z" fill="#26C6DA"/>
<path opacity="0.25" d="M19.4185 8.18286H10.0005V12.0509H15.3825C15.2711 12.6627 15.0368 13.2456 14.6937 13.7644C14.3506 14.2831 13.9059 14.7269 13.3865 15.0689L16.6185 17.5789C17.6028 16.6311 18.377 15.487 18.8907 14.2208C19.4044 12.9546 19.6462 11.5945 19.6005 10.2289C19.6005 9.54086 19.5398 8.85886 19.4185 8.18286Z" fill="#26C6DA"/>
</svg>
