<svg width="14" height="14" viewBox="0 0 14 14" fill="none" xmlns="http://www.w3.org/2000/svg">
<path d="M7.03412 11.4931C7.22779 11.4931 7.39112 11.4266 7.52412 11.2936C7.65712 11.1606 7.72362 10.9973 7.72362 10.8036C7.72362 10.6088 7.65712 10.4449 7.52412 10.3119C7.39112 10.1795 7.22779 10.1132 7.03412 10.1132C6.84046 10.1132 6.67683 10.1795 6.54325 10.3119C6.40967 10.4443 6.34317 10.6079 6.34375 10.8027C6.34433 10.9976 6.41083 11.1609 6.54325 11.2927C6.67567 11.4246 6.83987 11.4914 7.03412 11.4931ZM9.5445 4.65062C9.5445 3.98679 9.31758 3.44137 8.86375 3.01437C8.40992 2.58737 7.8295 2.37358 7.1225 2.373C6.63483 2.373 6.17575 2.48821 5.74525 2.71862C5.31475 2.94904 4.97058 3.27454 4.71275 3.69512C4.65617 3.78846 4.65004 3.89054 4.69437 4.00137C4.73812 4.11221 4.81717 4.18892 4.9315 4.2315C5.03942 4.27117 5.14908 4.27204 5.2605 4.23412C5.37133 4.19679 5.45883 4.12971 5.523 4.03287C5.70558 3.74704 5.92287 3.53471 6.17487 3.39587C6.42687 3.25704 6.72496 3.18733 7.06912 3.18675C7.55621 3.18675 7.94967 3.32412 8.2495 3.59887C8.54933 3.87362 8.69925 4.22946 8.69925 4.66637C8.69925 4.92887 8.62866 5.1835 8.4875 5.43025C8.34633 5.677 8.11183 5.94621 7.784 6.23787C7.40483 6.59546 7.12337 6.92008 6.93962 7.21175C6.75587 7.50342 6.64592 7.82367 6.60975 8.1725C6.59167 8.27575 6.62287 8.372 6.70337 8.46125C6.78329 8.5505 6.88392 8.59512 7.00525 8.59512C7.11958 8.59512 7.21875 8.55954 7.30275 8.48837C7.38617 8.41721 7.43837 8.32096 7.45937 8.19962C7.50312 7.95521 7.58887 7.73354 7.71662 7.53462C7.84496 7.33512 8.05496 7.08954 8.34662 6.79787C8.79987 6.34462 9.11283 5.96429 9.2855 5.65687C9.45817 5.34946 9.5445 5.01404 9.5445 4.65062ZM1.414 14C1.01092 14 0.674625 13.8652 0.405125 13.5957C0.135625 13.3262 0.000583333 12.9897 0 12.586V1.414C0 1.01092 0.135041 0.674625 0.405125 0.405125C0.675208 0.135625 1.0115 0.000583333 1.414 0H12.5869C12.9894 0 13.3257 0.135041 13.5957 0.405125C13.8658 0.675208 14.0006 1.0115 14 1.414V12.5869C14 12.9894 13.8652 13.3257 13.5957 13.5957C13.3262 13.8658 12.9897 14.0006 12.586 14H1.414ZM1.414 13.125H12.5869C12.721 13.125 12.8444 13.069 12.957 12.957C13.0696 12.845 13.1256 12.7213 13.125 12.586V1.414C13.125 1.27925 13.069 1.15558 12.957 1.043C12.845 0.930416 12.7213 0.874417 12.586 0.875H1.414C1.27925 0.875 1.15558 0.931 1.043 1.043C0.930416 1.155 0.874417 1.27867 0.875 1.414V12.5869C0.875 12.721 0.931 12.8444 1.043 12.957C1.155 13.0696 1.27837 13.1256 1.41312 13.125" fill="#26C6DA"/>
</svg>
