<svg width="25" height="25" viewBox="0 0 25 25" fill="none" xmlns="http://www.w3.org/2000/svg">
<path d="M12 17.1667C12 17.3877 12.1054 17.5996 12.2929 17.7559C12.4804 17.9122 12.7348 18 13 18C13.2652 18 13.5196 17.9122 13.7071 17.7559C13.8946 17.5996 14 17.3877 14 17.1667V13.8333C14 13.6123 13.8946 13.4004 13.7071 13.2441C13.5196 13.0878 13.2652 13 13 13C12.7348 13 12.4804 13.0878 12.2929 13.2441C12.1054 13.4004 12 13.6123 12 13.8333V17.1667Z" fill="#0D47A1" fill-opacity="0.5"/>
<path fill-rule="evenodd" clip-rule="evenodd" d="M12.5 0C11.6767 0 10.9291 0.236047 10.1163 0.630233C9.33256 1.01163 8.42558 1.57442 7.29419 2.27674L4.8907 3.7686C3.82093 4.43372 2.96163 4.96628 2.30116 5.47209C1.61628 5.99535 1.0907 6.53023 0.710465 7.22442C0.331395 7.91628 0.161628 8.65349 0.0790697 9.52442C-5.19808e-08 10.3674 0 11.4 0 12.6942V14.5698C0 16.7837 0 18.5314 0.177907 19.8977C0.359302 21.2988 0.743023 22.4302 1.60814 23.3244C2.47674 24.2233 3.5814 24.6256 4.95116 24.8151C6.27674 25 7.97209 25 10.107 25H14.893C17.0279 25 18.7233 25 20.0488 24.8151C21.4174 24.6256 22.5233 24.2233 23.393 23.3244C24.257 22.4302 24.6407 21.2988 24.8233 19.8977C25 18.5314 25 16.7837 25 14.5698V12.6942C25 11.4 25 10.3686 24.9209 9.52442C24.8395 8.65233 24.6686 7.91628 24.2895 7.22442C23.9093 6.53023 23.3826 5.99651 22.6988 5.47209C22.0384 4.96512 21.1802 4.43372 20.1093 3.7686L17.7058 2.27674C16.5744 1.57442 15.6674 1.01163 14.8826 0.630233C14.0721 0.234884 13.3244 0 12.5 0ZM8.17442 3.78372C9.35465 3.05116 10.186 2.53721 10.8802 2.19884C11.5558 1.86977 12.0349 1.74419 12.5 1.74419C12.9651 1.74419 13.4442 1.86977 14.1198 2.19884C14.8151 2.53605 15.6453 3.05116 16.8256 3.78372L19.1512 5.22674C20.2686 5.92093 21.0535 6.40814 21.6395 6.85698C22.2081 7.29302 22.5349 7.65232 22.7593 8.06163C22.9837 8.47209 23.1151 8.95233 23.1837 9.68721C23.2547 10.4407 23.2558 11.3907 23.2558 12.7372V14.5058C23.2558 16.7965 23.2535 18.4314 23.093 19.6721C22.9349 20.8907 22.636 21.5977 22.1395 22.1128C21.6453 22.6233 20.9733 22.9267 19.8093 23.0884C18.6163 23.2535 17.043 23.2558 14.8256 23.2558H10.1744C7.95581 23.2558 6.38372 23.2535 5.1907 23.0884C4.02674 22.9256 3.35465 22.6233 2.86163 22.1116C2.36395 21.5977 2.06512 20.8907 1.90814 19.6721C1.74535 18.4314 1.74419 16.7977 1.74419 14.5058V12.7372C1.74419 11.3907 1.74419 10.4407 1.81628 9.68721C1.88488 8.95233 2.01628 8.47209 2.2407 8.06163C2.46512 7.65232 2.79186 7.29302 3.36163 6.85698C3.94651 6.40814 4.7314 5.92093 5.84884 5.22674L8.17442 3.78372Z" fill="#0D47A1" fill-opacity="0.5"/>
</svg>
