<svg width="16" height="16" viewBox="0 0 16 16" fill="none" xmlns="http://www.w3.org/2000/svg">
<path d="M7.985 3.885C7.1741 3.885 6.3814 4.12546 5.70716 4.57597C5.03292 5.02649 4.50741 5.66682 4.19709 6.416C3.88678 7.16517 3.80558 7.98955 3.96378 8.78487C4.12198 9.58019 4.51247 10.3107 5.08586 10.8841C5.65926 11.4575 6.38981 11.848 7.18513 12.0062C7.98045 12.1644 8.80482 12.0832 9.554 11.7729C10.3032 11.4626 10.9435 10.9371 11.394 10.2628C11.8445 9.5886 12.085 8.7959 12.085 7.985C12.0863 7.44621 11.9812 6.91247 11.7756 6.41444C11.57 5.91641 11.2681 5.4639 10.8871 5.08292C10.5061 4.70194 10.0536 4.39998 9.55556 4.19441C9.05753 3.98883 8.52379 3.88368 7.985 3.885ZM7.985 10.655C7.45692 10.655 6.94071 10.4984 6.50163 10.205C6.06255 9.91164 5.72033 9.49464 5.51824 9.00676C5.31616 8.51889 5.26328 7.98204 5.3663 7.46411C5.46933 6.94618 5.72362 6.47043 6.09703 6.09703C6.47043 5.72362 6.94618 5.46933 7.46411 5.3663C7.98204 5.26328 8.51889 5.31616 9.00676 5.51824C9.49464 5.72033 9.91164 6.06255 10.205 6.50163C10.4984 6.94071 10.655 7.45692 10.655 7.985C10.655 8.69313 10.3737 9.37225 9.87297 9.87297C9.37225 10.3737 8.69313 10.655 7.985 10.655ZM13.215 3.715C13.215 3.91278 13.1564 4.10612 13.0465 4.27057C12.9366 4.43502 12.7804 4.56319 12.5977 4.63888C12.415 4.71457 12.2139 4.73437 12.0199 4.69579C11.8259 4.6572 11.6477 4.56196 11.5079 4.42211C11.368 4.28225 11.2728 4.10407 11.2342 3.91009C11.1956 3.71611 11.2154 3.51504 11.2911 3.33232C11.3668 3.14959 11.495 2.99341 11.6594 2.88353C11.8239 2.77365 12.0172 2.715 12.215 2.715C12.4802 2.715 12.7346 2.82036 12.9221 3.00789C13.1096 3.19543 13.215 3.44978 13.215 3.715ZM15.925 4.715C15.9552 3.47164 15.4913 2.267 14.635 1.365C14.1908 0.935588 13.6662 0.597975 13.0914 0.371475C12.5166 0.144976 11.9027 0.0340351 11.285 0.045C9.985 -0.015 5.985 -0.015 4.685 0.045C3.44221 0.0180892 2.23877 0.481501 1.335 1.335C0.478693 2.237 0.0148183 3.44164 0.045 4.685C-0.015 5.985 -0.015 9.985 0.045 11.285C0.0148183 12.5284 0.478693 13.733 1.335 14.635C2.23877 15.4885 3.44221 15.9519 4.685 15.925C6.005 16.005 9.965 16.005 11.285 15.925C12.5284 15.9552 13.733 15.4913 14.635 14.635C15.4913 13.733 15.9552 12.5284 15.925 11.285C15.985 9.985 15.985 5.985 15.925 4.685V4.715ZM14.225 12.715C14.0892 13.0589 13.8843 13.3713 13.6228 13.6328C13.3613 13.8943 13.0489 14.0992 12.705 14.235C11.1526 14.5489 9.56556 14.6565 7.985 14.555C6.40776 14.6556 4.82414 14.548 3.275 14.235C2.93106 14.0992 2.61868 13.8943 2.35721 13.6328C2.09575 13.3713 1.89077 13.0589 1.755 12.715C1.335 11.655 1.425 9.155 1.425 7.995C1.425 6.835 1.335 4.325 1.755 3.275C1.88694 2.92767 2.09045 2.61196 2.35231 2.34838C2.61418 2.08479 2.92854 1.87922 3.275 1.745C4.82414 1.43202 6.40776 1.32443 7.985 1.425C9.56556 1.32355 11.1526 1.43114 12.705 1.745C13.0489 1.88077 13.3613 2.08575 13.6228 2.34721C13.8843 2.60868 14.0892 2.92106 14.225 3.265C14.645 4.325 14.545 6.825 14.545 7.985C14.545 9.145 14.645 11.655 14.225 12.705V12.715Z" fill="#0D47A1" fill-opacity="0.5"/>
</svg>
