<svg width="14" height="12" viewBox="0 0 14 12" fill="none" xmlns="http://www.w3.org/2000/svg">
<path d="M14 11.9991H12.992C12.8916 12.006 12.7923 11.974 12.712 11.9091C12.6414 11.8468 12.5862 11.767 12.551 11.6766L11.9 9.74925H8.4L7.7 11.6541C7.66588 11.741 7.61312 11.8181 7.546 11.8791C7.46769 11.9494 7.36815 11.9867 7.266 11.9841H6.3L9.485 3.38224H10.808L14 11.9991ZM11.529 8.76683L10.423 5.62457C10.3164 5.3201 10.2253 5.00967 10.15 4.69464C10.108 4.87963 10.0637 5.05211 10.017 5.2121L9.884 5.63207L8.778 8.77433L11.529 8.76683ZM7.119 7.58192C6.40265 7.31883 5.71867 6.96377 5.082 6.5245C6.06312 5.39554 6.74255 4.0045 7.049 2.49731H8.4V1.49988H5.117C5.08012 1.35637 5.03333 1.21599 4.977 1.07992C4.809 0.592455 4.62 0 4.62 0L3.591 0.374971C3.591 0.374971 3.871 1.04242 4.011 1.49988H0V2.49731H1.505C1.81174 4.01068 2.50204 5.40415 3.5 6.5245C2.41841 7.24444 1.23706 7.77601 0 8.09938C0.261333 8.50935 0.464333 8.85432 0.609 9.1343C1.89534 8.67211 3.12282 8.03978 4.263 7.25194C5.03742 7.80646 5.87489 8.25255 6.755 8.57934L7.119 7.58192ZM2.541 2.49731H5.978C5.75514 3.77796 5.15389 4.94793 4.263 5.83455C3.40468 4.92003 2.80736 3.76242 2.541 2.49731Z" fill="#0D47A1" fill-opacity="0.5"/>
</svg>
