<svg width="13" height="11" viewBox="0 0 13 11" fill="none" xmlns="http://www.w3.org/2000/svg">
<path d="M13 10.9992H12.064C11.9708 11.0055 11.8785 10.9762 11.804 10.9167C11.7385 10.8596 11.6871 10.7864 11.6545 10.7036L11.05 8.93681H7.8L7.15 10.6829C7.11832 10.7626 7.06933 10.8333 7.007 10.8892C6.93429 10.9536 6.84185 10.9878 6.747 10.9854H5.85L8.8075 3.10039H10.036L13 10.9992ZM10.7055 8.03626L9.6785 5.15585C9.5795 4.87676 9.49487 4.5922 9.425 4.30342C9.386 4.47299 9.34483 4.6311 9.3015 4.77776L9.178 5.16273L8.151 8.04313L10.7055 8.03626ZM6.6105 6.95009C5.94532 6.70893 5.31019 6.38346 4.719 5.98079C5.63004 4.94591 6.26094 3.67079 6.5455 2.2892H7.8V1.37489H4.7515C4.71726 1.24334 4.6738 1.11466 4.6215 0.989924C4.4655 0.543083 4.29 0 4.29 0L3.3345 0.343724C3.3345 0.343724 3.5945 0.955552 3.7245 1.37489H0V2.2892H1.3975C1.68233 3.67646 2.32332 4.9538 3.25 5.98079C2.24566 6.64074 1.1487 7.12801 0 7.42443C0.242667 7.80023 0.431167 8.11646 0.5655 8.37311C1.75996 7.94944 2.89976 7.36979 3.9585 6.64761C4.67761 7.15593 5.45525 7.56484 6.2725 7.8644L6.6105 6.95009ZM2.3595 2.2892H5.551C5.34406 3.46313 4.78576 4.5356 3.9585 5.34834C3.16149 4.51003 2.60683 3.44889 2.3595 2.2892Z" fill="#26C6DA"/>
</svg>
