<svg width="16" height="16" viewBox="0 0 16 16" fill="none" xmlns="http://www.w3.org/2000/svg">
<path d="M13.7629 0H2.23714C1.64432 0.00165296 1.07625 0.237881 0.657068 0.657068C0.237881 1.07625 0.00165296 1.64432 0 2.23714V13.7629C0.00165296 14.3557 0.237881 14.9237 0.657068 15.3429C1.07625 15.7621 1.64432 15.9983 2.23714 16H13.7629C14.3562 16 14.9252 15.7643 15.3448 15.3448C15.7643 14.9252 16 14.3562 16 13.7629V2.23714C16 1.64381 15.7643 1.07479 15.3448 0.655242C14.9252 0.235698 14.3562 0 13.7629 0ZM15.1051 13.7629C15.1028 14.1181 14.9606 14.4582 14.7094 14.7094C14.4582 14.9606 14.1181 15.1028 13.7629 15.1051H2.23714C1.88187 15.1028 1.54181 14.9606 1.29059 14.7094C1.03937 14.4582 0.8972 14.1181 0.894855 13.7629V2.23714C0.8972 1.88187 1.03937 1.54181 1.29059 1.29059C1.54181 1.03937 1.88187 0.8972 2.23714 0.894855H13.7629C14.1181 0.8972 14.4582 1.03937 14.7094 1.29059C14.9606 1.54181 15.1028 1.88187 15.1051 2.23714V13.7629Z" fill="#0D47A1" fill-opacity="0.5"/>
<path d="M3 6.94118C3 6.69156 3.10536 6.45217 3.29289 6.27566C3.48043 6.09916 3.73478 6 4 6C4.26522 6 4.51957 6.09916 4.70711 6.27566C4.89464 6.45217 5 6.69156 5 6.94118V13.0588C5 13.3084 4.89464 13.5478 4.70711 13.7243C4.51957 13.9008 4.26522 14 4 14C3.73478 14 3.48043 13.9008 3.29289 13.7243C3.10536 13.5478 3 13.3084 3 13.0588V6.94118Z" fill="#0D47A1" fill-opacity="0.5"/>
<path d="M4 4C4.55228 4 5 3.55228 5 3C5 2.44772 4.55228 2 4 2C3.44772 2 3 2.44772 3 3C3 3.55228 3.44772 4 4 4Z" fill="#0D47A1" fill-opacity="0.5"/>
<path d="M13 9.40725V13.0589C13 13.3085 12.9126 13.5479 12.7569 13.7243C12.6013 13.9008 12.3902 14 12.1701 14C11.95 14 11.7389 13.9008 11.5833 13.7243C11.4277 13.5479 11.3402 13.3085 11.3402 13.0589V9.40725C11.3402 9.00414 11.199 8.61754 10.9477 8.33249C10.6963 8.04745 10.3555 7.88731 9.99999 7.88731C9.64454 7.88731 9.30364 8.04745 9.0523 8.33249C8.80095 8.61754 8.65975 9.00414 8.65975 9.40725V13.0589C8.65975 13.3085 8.57232 13.5479 8.41668 13.7243C8.26105 13.9008 8.04997 14 7.82987 14C7.60978 14 7.3987 13.9008 7.24306 13.7243C7.08743 13.5479 7 13.3085 7 13.0589V6.94147C7.00342 6.69307 7.09195 6.45594 7.24685 6.28028C7.40175 6.10462 7.61085 6.00421 7.82987 6.00033C7.97043 5.99597 8.10942 6.03477 8.23213 6.11263C8.35484 6.1905 8.45671 6.30453 8.52697 6.44267C8.98329 6.14937 9.49951 5.99707 10.024 6.00101C10.5485 6.00496 11.0629 6.165 11.5158 6.46513C11.9686 6.76527 12.344 7.19498 12.6045 7.71129C12.865 8.2276 13.0013 8.81241 13 9.40725Z" fill="#0D47A1" fill-opacity="0.5"/>
</svg>
