<svg width="6" height="7" viewBox="0 0 6 7" fill="none" xmlns="http://www.w3.org/2000/svg">
<path d="M2.9375 2.375C2.9375 2.47446 2.89799 2.56984 2.82766 2.64016C2.75734 2.71049 2.66196 2.75 2.5625 2.75C2.46304 2.75 2.36766 2.71049 2.29734 2.64016C2.22701 2.56984 2.1875 2.47446 2.1875 2.375C2.1875 2.27554 2.22701 2.18016 2.29734 2.10984C2.36766 2.03951 2.46304 2 2.5625 2C2.66196 2 2.75734 2.03951 2.82766 2.10984C2.89799 2.18016 2.9375 2.27554 2.9375 2.375Z" stroke="#0D47A1" stroke-opacity="0.5" stroke-linejoin="round"/>
<path d="M4.625 2.5625C4.625 3.70175 3.875 5 2.5625 6.5C1.25 5 0.5 3.70175 0.5 2.5625C0.5 2.01549 0.717298 1.49089 1.10409 1.10409C1.49089 0.717299 2.01549 0.5 2.5625 0.5C3.10951 0.5 3.63411 0.717299 4.02091 1.10409C4.4077 1.49089 4.625 2.01549 4.625 2.5625Z" stroke="#0D47A1" stroke-opacity="0.5" stroke-linejoin="round"/>
</svg>
