<svg width="19" height="20" viewBox="0 0 19 20" fill="none" xmlns="http://www.w3.org/2000/svg">
<path d="M10.1 6.8501C10.4315 6.8501 10.7495 6.98179 10.9839 7.21621C11.2183 7.45063 11.35 7.76858 11.35 8.1001C11.35 8.26425 11.3177 8.4268 11.2549 8.57845C11.192 8.73011 11.1 8.86791 10.9839 8.98398C10.8678 9.10005 10.73 9.19213 10.5784 9.25495C10.4267 9.31777 10.2642 9.3501 10.1 9.3501C9.76849 9.3501 9.45054 9.2184 9.21612 8.98398C8.9817 8.74956 8.85001 8.43162 8.85001 8.1001C8.85001 7.76858 8.9817 7.45063 9.21612 7.21621C9.45054 6.98179 9.76849 6.8501 10.1 6.8501ZM10.1 4.6001C11.0283 4.6001 11.9185 4.96885 12.5749 5.62522C13.2313 6.2816 13.6 7.17184 13.6 8.1001C13.6 10.7251 10.1 14.6001 10.1 14.6001C10.1 14.6001 6.60001 10.7251 6.60001 8.1001C6.60001 7.17184 6.96876 6.2816 7.62513 5.62522C8.28151 4.96885 9.17175 4.6001 10.1 4.6001ZM10.1 5.6001C9.43696 5.6001 8.80108 5.86349 8.33224 6.33233C7.8634 6.80117 7.60001 7.43706 7.60001 8.1001C7.60001 8.6001 7.60001 9.6001 10.1 12.9551C12.6 9.6001 12.6 8.6001 12.6 8.1001C12.6 7.43706 12.3366 6.80117 11.8678 6.33233C11.3989 5.86349 10.763 5.6001 10.1 5.6001Z" fill="#0D47A1" fill-opacity="0.5"/>
<path d="M1.95001 7.8001C1.95001 4.4062 1.95001 2.7088 3.00481 1.6549C4.05961 0.600998 5.75611 0.600098 9.15001 0.600098H10.5C13.8939 0.600098 15.5913 0.600098 16.6452 1.6549C17.6991 2.7097 17.7 4.4062 17.7 7.8001V11.4001C17.7 14.794 17.7 16.4914 16.6452 17.5453C15.5904 18.5992 13.8939 18.6001 10.5 18.6001H9.15001C5.75611 18.6001 4.05871 18.6001 3.00481 17.5453C1.95091 16.4905 1.95001 14.794 1.95001 11.4001V7.8001Z" stroke="#0D47A1" stroke-opacity="0.5" stroke-width="1.2"/>
<path d="M2.85001 4.2002H0.600006M2.85001 9.6002H0.600006M2.85001 15.0002H0.600006" stroke="#0D47A1" stroke-opacity="0.5" stroke-width="1.2" stroke-linecap="round" stroke-linejoin="round"/>
</svg>
