<svg width="7" height="9" viewBox="0 0 7 9" fill="none" xmlns="http://www.w3.org/2000/svg">
<path d="M3.75 3C3.75 3.13261 3.69732 3.25979 3.60355 3.35355C3.50979 3.44732 3.38261 3.5 3.25 3.5C3.11739 3.5 2.99021 3.44732 2.89645 3.35355C2.80268 3.25979 2.75 3.13261 2.75 3C2.75 2.86739 2.80268 2.74021 2.89645 2.64645C2.99021 2.55268 3.11739 2.5 3.25 2.5C3.38261 2.5 3.50979 2.55268 3.60355 2.64645C3.69732 2.74021 3.75 2.86739 3.75 3Z" stroke="#0D47A1" stroke-linejoin="round"/>
<path d="M6 3.25C6 4.769 5 6.5 3.25 8.5C1.5 6.5 0.5 4.769 0.5 3.25C0.5 2.52065 0.789731 1.82118 1.30546 1.30546C1.82118 0.789731 2.52065 0.5 3.25 0.5C3.97935 0.5 4.67882 0.789731 5.19454 1.30546C5.71027 1.82118 6 2.52065 6 3.25Z" stroke="#0D47A1" stroke-linejoin="round"/>
</svg>
