<svg width="18" height="18" viewBox="0 0 18 18" fill="none" xmlns="http://www.w3.org/2000/svg">
<path d="M8.74951 0C8.5506 0 8.35983 0.0790175 8.21918 0.21967C8.07853 0.360322 7.99951 0.551088 7.99951 0.75C7.99951 0.948912 8.07853 1.13968 8.21918 1.28033C8.35983 1.42098 8.5506 1.5 8.74951 1.5C10.6723 1.5 12.5164 2.26384 13.876 3.62348C15.2357 4.98311 15.9995 6.82718 15.9995 8.75C15.9995 10.6728 15.2357 12.5169 13.876 13.8765C12.5164 15.2362 10.6723 16 8.74951 16C8.5506 16 8.35983 16.079 8.21918 16.2197C8.07853 16.3603 7.99951 16.5511 7.99951 16.75C7.99951 16.9489 8.07853 17.1397 8.21918 17.2803C8.35983 17.421 8.5506 17.5 8.74951 17.5C11.0702 17.5 13.2958 16.5781 14.9367 14.9372C16.5776 13.2962 17.4995 11.0706 17.4995 8.75C17.4995 6.42936 16.5776 4.20376 14.9367 2.56282C13.2958 0.921872 11.0702 0 8.74951 0Z" fill="#26C6DA"/>
<path d="M4.27951 6.27997C4.41199 6.13779 4.48411 5.94975 4.48069 5.75545C4.47726 5.56115 4.39855 5.37576 4.26113 5.23835C4.12372 5.10093 3.93833 5.02222 3.74403 5.01879C3.54973 5.01537 3.36169 5.08749 3.21951 5.21997L0.219511 8.21997C0.0790606 8.36059 0.000171661 8.55122 0.000171661 8.74997C0.000171661 8.94872 0.0790606 9.13934 0.219511 9.27997L3.21951 12.28C3.28817 12.3537 3.37097 12.4128 3.46297 12.4538C3.55497 12.4947 3.65429 12.5168 3.75499 12.5186C3.85569 12.5203 3.95572 12.5018 4.04911 12.4641C4.1425 12.4264 4.22733 12.3702 4.29855 12.299C4.36977 12.2278 4.42591 12.143 4.46363 12.0496C4.50136 11.9562 4.51988 11.8561 4.5181 11.7554C4.51633 11.6547 4.49428 11.5554 4.45329 11.4634C4.4123 11.3714 4.3532 11.2886 4.27951 11.22L2.55951 9.49997H10.7495C10.9484 9.49997 11.1392 9.42095 11.2798 9.2803C11.4205 9.13965 11.4995 8.94888 11.4995 8.74997C11.4995 8.55106 11.4205 8.36029 11.2798 8.21964C11.1392 8.07899 10.9484 7.99997 10.7495 7.99997H2.55951L4.27951 6.27997Z" fill="#26C6DA"/>
</svg>
