<svg width="15" height="12" viewBox="0 0 15 12" fill="none" xmlns="http://www.w3.org/2000/svg">
<path d="M5.03968 3.24389C4.14992 3.24389 3.54283 2.82449 3.2184 1.98568C2.84461 1.02008 2.90053 1.10055 3.74646 0.499661C4.69179 -0.171244 5.47352 -0.162884 6.41471 0.502796C7.25236 1.09532 7.3062 1.01799 6.9262 2.00345C6.6073 2.82971 5.97846 3.24285 5.03968 3.24285V3.24389Z" fill="#0D47A1" fill-opacity="0.5"/>
<path d="M7.153 11.2312C7.13332 11.2427 7.11365 11.2521 7.09398 11.2626C5.89394 11.8739 4.58414 11.9502 3.36857 11.5238C3.12628 11.4402 2.88607 11.3378 2.65206 11.2135C2.34869 11.0536 2.06602 10.8623 1.80717 10.646C1.72951 10.5833 1.65186 10.5196 1.57627 10.4527C1.042 9.97824 0.636119 9.3669 0.375195 8.68973C0.0562887 7.91328 -0.0710668 7.05427 0.0386867 6.19317C0.150511 5.30803 0.518082 4.46575 1.05546 3.76035C1.07203 3.73945 1.09274 3.71333 1.11759 3.68198C1.41268 3.31622 2.81877 1.95665 3.12732 2.91389C3.1822 3.08423 3.04863 3.23784 2.89953 3.32354C1.6208 4.06237 0.891865 5.3467 0.874263 6.83063L0.900149 6.81078C0.900149 7.59141 1.12587 8.39294 1.58663 9.14222C1.63011 9.21329 1.67671 9.28226 1.72641 9.35018C2.14575 9.88314 2.69762 10.3147 3.33336 10.5864C3.56737 10.6836 3.81172 10.7599 4.06126 10.8143C4.06954 10.8164 4.07783 10.8184 4.08507 10.8195C4.09957 10.8226 4.11406 10.8258 4.12856 10.8289C4.48578 10.8958 4.85128 10.9114 5.21367 10.8811C5.63508 10.8456 6.03372 10.7484 6.40232 10.5979C6.63218 10.8352 6.88379 11.0463 7.153 11.2312Z" fill="#0D47A1" fill-opacity="0.5"/>
<path d="M9.01574 9.70439C8.79106 9.98968 8.53531 10.252 8.25368 10.484C7.9824 10.323 7.73597 10.1381 7.51647 9.93325C8.28681 9.37625 8.84593 8.54128 9.08718 7.53597C9.49824 5.82213 8.75896 4.06022 7.25347 3.16046C7.10644 3.07267 6.97495 2.91697 7.03293 2.74663C7.35598 1.79461 8.74136 3.17509 9.03024 3.54607C9.05509 3.57742 9.07579 3.60355 9.09133 3.62549C9.61731 4.3382 9.97246 5.18676 10.0719 6.07294C10.0874 6.20983 10.0967 6.34882 10.1009 6.48676C10.1309 7.65824 9.72603 8.80045 9.01574 9.70439Z" fill="#0D47A1" fill-opacity="0.5"/>
<path d="M14.9963 7.26315C14.9704 7.97481 14.7975 8.68125 14.4734 9.32603C13.8656 10.5362 12.8561 11.3816 11.626 11.7641C11.3817 11.8424 11.129 11.9031 10.866 11.9438C10.5274 11.9961 10.1889 12.0107 9.85235 11.9919C9.75399 11.9877 9.65356 11.9825 9.55312 11.9741C8.84386 11.9114 8.15842 11.6606 7.55063 11.2719C7.47298 11.2248 7.39739 11.1757 7.32284 11.1235C7.05364 10.9385 6.80203 10.7274 6.57217 10.4902C6.27915 10.1861 6.02237 9.84227 5.81322 9.46188C5.38456 8.68229 5.18576 7.78357 5.20543 6.89426C5.20543 6.86813 5.20646 6.83365 5.20854 6.79394C5.23131 6.32263 5.56575 4.38725 6.37648 4.97351C6.5204 5.07801 6.50383 5.28074 6.43446 5.43959C5.83703 6.79916 6.00477 8.27055 6.86105 9.47651L6.87037 9.44412C7.02361 9.65521 7.19963 9.85272 7.39636 10.0346C7.61587 10.2394 7.86229 10.4243 8.13357 10.5853C8.33962 10.7086 8.55913 10.8183 8.79209 10.9124C8.86871 10.9437 8.9474 10.9709 9.02713 10.996C9.67737 11.1747 10.3763 11.1924 11.0472 11.0305C11.2926 10.9688 11.5349 10.8842 11.7679 10.7786C11.7751 10.7755 11.7824 10.7723 11.7906 10.7692C11.8031 10.7629 11.8165 10.7567 11.83 10.7504C12.1572 10.5905 12.4616 10.3846 12.7349 10.1432C14.082 8.95295 14.4693 7.13252 13.7807 5.47407C13.1056 3.84802 11.4759 2.86987 9.73432 3.04648C9.56347 3.0632 9.36675 3.01618 9.31394 2.84479C9.01471 1.88442 10.9416 2.16866 11.392 2.29407C11.4303 2.30452 11.4624 2.31392 11.4873 2.32124C12.3301 2.5804 13.1139 3.05171 13.7144 3.70589C13.8076 3.80831 13.8967 3.91385 13.9805 4.02254C14.6929 4.94843 15.0377 6.11154 14.9963 7.26315Z" fill="#0D47A1" fill-opacity="0.5"/>
</svg>
