<svg width="20" height="20" viewBox="0 0 20 20" fill="none" xmlns="http://www.w3.org/2000/svg">
<path d="M9.59998 18.6001C14.5707 18.6001 18.6 14.5708 18.6 9.6001C18.6 4.6294 14.5707 0.600098 9.59998 0.600098C4.62928 0.600098 0.599976 4.62985 0.599976 9.6001C0.599976 14.5703 4.62928 18.6001 9.59998 18.6001Z" stroke="#0D47A1" stroke-opacity="0.5" stroke-width="1.2"/>
<path d="M1.5 12.7437C2.6844 13.2183 3.537 13.2183 4.0578 12.7437C4.839 12.0309 4.1649 9.86905 5.2593 9.2728C6.3528 8.67655 8.02005 11.3194 9.57795 10.45C11.1358 9.58015 9.43125 7.26085 10.5121 6.3208C11.593 5.38075 12.9993 6.44095 13.245 4.86865C13.4907 3.29635 12.0984 3.97855 11.8311 2.49265C11.6535 1.50265 11.6535 0.982152 11.8311 0.931152M11.859 18.3075C11.016 17.4444 10.7125 16.6422 10.9486 15.9009C11.3028 14.7885 11.8873 14.8542 12.142 14.1666C12.3967 13.479 11.6772 12.4993 13.2738 11.6623C14.3385 11.1043 15.8023 11.751 17.6653 13.6023" stroke="#0D47A1" stroke-opacity="0.5" stroke-width="1.2" stroke-linecap="round"/>
</svg>
