<svg width="17" height="19" viewBox="0 0 17 19" fill="none" xmlns="http://www.w3.org/2000/svg">
<path d="M8.10693 4.34595V7.15538" stroke="#26C6DA" stroke-width="1.2" stroke-miterlimit="10" stroke-linecap="round"/>
<path d="M8.12343 0.599976C5.01871 0.599976 2.50457 3.11412 2.50457 6.21884V7.99055C2.50457 8.56425 2.26834 9.42479 1.97306 9.91412L0.901591 11.7027C0.243527 12.8079 0.69911 14.0397 1.914 14.4446C5.94675 15.7861 10.3085 15.7861 14.3413 14.4446C15.4803 14.065 15.9696 12.732 15.3537 11.7027L14.2822 9.91412C13.987 9.42479 13.7507 8.55581 13.7507 7.99055V6.21884C13.7423 3.13099 11.2113 0.599976 8.12343 0.599976Z" stroke="#26C6DA" stroke-width="1.2" stroke-miterlimit="10" stroke-linecap="round"/>
<path d="M10.9162 14.7905C10.9162 16.3344 9.65071 17.6 8.10679 17.6C7.33905 17.6 6.63037 17.2794 6.12416 16.7732C5.61796 16.267 5.29736 15.5583 5.29736 14.7905" stroke="#26C6DA" stroke-width="1.2" stroke-miterlimit="10"/>
</svg>
