<svg width="19" height="20" viewBox="0 0 19 20" fill="none" xmlns="http://www.w3.org/2000/svg">
<path d="M1.95001 7.8001C1.95001 4.4062 1.95001 2.7088 3.00481 1.6549C4.05961 0.600998 5.75611 0.600098 9.15001 0.600098H10.5C13.8939 0.600098 15.5913 0.600098 16.6452 1.6549C17.6991 2.7097 17.7 4.4062 17.7 7.8001V11.4001C17.7 14.794 17.7 16.4914 16.6452 17.5453C15.5904 18.5992 13.8939 18.6001 10.5 18.6001H9.15001C5.75611 18.6001 4.05871 18.6001 3.00481 17.5453C1.95091 16.4905 1.95001 14.794 1.95001 11.4001V7.8001Z" stroke="#0D47A1" stroke-opacity="0.5" stroke-width="1.2"/>
<path d="M7.16999 9.57666C6.78569 8.90706 6.60029 8.36076 6.48869 7.80636C6.32309 6.98736 6.70199 6.18636 7.32839 5.67516C7.59389 5.45916 7.89719 5.53296 8.05379 5.81466L8.40749 6.44916C8.68739 6.95136 8.82779 7.20336 8.79989 7.46976C8.77289 7.73616 8.58389 7.95306 8.20589 8.38776L7.16999 9.57666ZM7.16999 9.57666C7.98008 10.9648 9.13525 12.12 10.5234 12.9301M10.5234 12.9301C11.193 13.3144 11.7393 13.4998 12.2937 13.6114C13.1127 13.777 13.9137 13.3981 14.4249 12.7717C14.6409 12.5062 14.5671 12.2029 14.2854 12.0463L13.6518 11.6926C13.1478 11.4127 12.8967 11.2723 12.6303 11.3002C12.3639 11.3272 12.147 11.5162 11.7123 11.8942L10.5234 12.9301Z" stroke="#0D47A1" stroke-opacity="0.5" stroke-width="1.2" stroke-linejoin="round"/>
<path d="M2.85001 4.2002H0.600006M2.85001 9.6002H0.600006M2.85001 15.0002H0.600006" stroke="#0D47A1" stroke-opacity="0.5" stroke-width="1.2" stroke-linecap="round" stroke-linejoin="round"/>
</svg>
