<svg width="21" height="11" viewBox="0 0 21 11" fill="none" xmlns="http://www.w3.org/2000/svg">
<path d="M0.5 5.5C0.5 3.14313 0.5 1.96437 1.672 1.2325C2.844 0.500625 4.729 0.5 8.5 0.5H12.5C16.271 0.5 18.157 0.5 19.328 1.2325C20.499 1.965 20.5 3.14313 20.5 5.5C20.5 7.85687 20.5 9.03562 19.328 9.7675C18.156 10.4994 16.271 10.5 12.5 10.5H8.5C4.729 10.5 2.843 10.5 1.672 9.7675C0.501 9.035 0.5 7.85687 0.5 5.5Z" stroke="#0D47A1" stroke-opacity="0.35"/>
<path d="M10.5 3.5V7.5M8.768 4.5L12.232 6.5M12.232 4.5L8.768 6.5M5.233 3.5V7.5M3.5 4.5L6.964 6.5M6.964 4.5L3.5 6.5M15.768 3.5V7.5M14.036 4.5L17.5 6.5M17.5 4.5L14.035 6.5" stroke="#0D47A1" stroke-opacity="0.35" stroke-linecap="round"/>
</svg>
