<svg width="18" height="18" viewBox="0 0 18 18" fill="none" xmlns="http://www.w3.org/2000/svg">
<path d="M6.48612 16.5234C6.02089 16.5722 5.55352 16.5979 5.08574 16.6003C4.5867 16.6003 4.46936 16.5641 4.06594 16.5234C3.54403 16.47 3.15165 16.0434 3.10975 15.5203L2.82518 11.968C2.51128 11.9535 1.84842 11.9375 1.60309 11.9222C0.992805 11.8838 0.537187 11.3565 0.607282 10.7489C0.769534 9.36536 1.07113 8.00175 1.50747 6.67883C1.70214 6.09216 2.20842 5.68607 2.8248 5.63502C3.34632 5.59083 4.08918 5.55273 5.08574 5.55273C6.08231 5.55273 6.82517 5.59083 7.34631 5.63464C7.96192 5.68569 8.46859 6.09178 8.66326 6.67844C8.87188 7.31008 9.04973 7.95147 9.19621 8.60034M10.5052 10.5051C10.5844 10.1085 10.7432 9.67234 10.8823 9.33482C11.0358 8.96148 11.3573 8.6853 11.7585 8.63768C11.9747 8.61283 12.1922 8.60037 12.4099 8.60034C12.6602 8.60034 12.8789 8.61596 13.0613 8.63768C13.4625 8.6853 13.784 8.96148 13.9375 9.33482C14.0766 9.67234 14.2354 10.1081 14.3147 10.5051" stroke="#0D47A1" stroke-opacity="0.5" stroke-width="1.2" stroke-linecap="round" stroke-linejoin="round"/>
<path d="M7.56156 3.07628C7.56156 3.733 7.30067 4.36283 6.8363 4.8272C6.37193 5.29158 5.7421 5.55246 5.08537 5.55246C4.42865 5.55246 3.79882 5.29158 3.33445 4.8272C2.87007 4.36283 2.60919 3.733 2.60919 3.07628C2.60919 2.41956 2.87007 1.78973 3.33445 1.32535C3.79882 0.86098 4.42865 0.600098 5.08537 0.600098C5.7421 0.600098 6.37193 0.86098 6.8363 1.32535C7.30067 1.78973 7.56156 2.41956 7.56156 3.07628ZM8.30327 11.7048C8.35622 11.1505 8.75393 10.7197 9.30707 10.653C9.9265 10.578 10.9147 10.5048 12.4099 10.5048C13.9052 10.5048 14.8937 10.578 15.5128 10.653C16.0659 10.7197 16.4636 11.1505 16.5166 11.7048C16.5604 12.1684 16.6004 12.7962 16.6004 13.5524C16.6004 14.3086 16.5604 14.9364 16.5166 15.4C16.4636 15.9543 16.0659 16.3852 15.5128 16.4519C14.8933 16.5269 13.9052 16.6 12.4099 16.6C10.9147 16.6 9.92612 16.5265 9.30707 16.4519C8.75393 16.3852 8.35622 15.9543 8.30327 15.4C8.24658 14.7858 8.21861 14.1693 8.21946 13.5524C8.21946 12.7962 8.25946 12.1684 8.30327 11.7048Z" stroke="#0D47A1" stroke-opacity="0.5" stroke-width="1.2" stroke-linecap="round" stroke-linejoin="round"/>
</svg>
