<svg width="12" height="11" viewBox="0 0 12 11" fill="none" xmlns="http://www.w3.org/2000/svg">
<path d="M11.7654 1.17493C11.8398 1.11102 11.8988 1.03515 11.939 0.951645C11.9793 0.868142 12 0.778643 12 0.68826C12 0.597876 11.9793 0.508378 11.939 0.424874C11.8988 0.341371 11.8398 0.265497 11.7654 0.201586C11.691 0.137676 11.6027 0.086979 11.5056 0.0523907C11.4084 0.0178024 11.3042 -6.7341e-10 11.1991 0C11.0939 6.7341e-10 10.9897 0.0178024 10.8925 0.0523907C10.7954 0.086979 10.7071 0.137676 10.6327 0.201586L5.03318 5.01333C4.95868 5.07718 4.89958 5.15303 4.85925 5.23655C4.81892 5.32006 4.79817 5.40958 4.79817 5.5C4.79817 5.59042 4.81892 5.67994 4.85925 5.76346C4.89958 5.84697 4.95868 5.92282 5.03318 5.98667L10.6327 10.7984C10.7071 10.8623 10.7954 10.913 10.8925 10.9476C10.9897 10.9822 11.0939 11 11.1991 11C11.3042 11 11.4084 10.9822 11.5056 10.9476C11.6027 10.913 11.691 10.8623 11.7654 10.7984C11.8398 10.7345 11.8988 10.6586 11.939 10.5751C11.9793 10.4916 12 10.4021 12 10.3117C12 10.2214 11.9793 10.1319 11.939 10.0484C11.8988 9.96485 11.8398 9.88898 11.7654 9.82507L6.73063 5.5L11.7654 1.17493ZM0 0.68826C0 0.505952 0.0842781 0.331112 0.234294 0.202201C0.384311 0.0732898 0.587777 0.000868273 0.799932 0.000868273C1.01209 0.000868273 1.21555 0.0732898 1.36557 0.202201C1.51559 0.331112 1.59986 0.505952 1.59986 0.68826V10.3117C1.59986 10.494 1.51559 10.6689 1.36557 10.7978C1.21555 10.9267 1.01209 10.9991 0.799932 10.9991C0.587777 10.9991 0.384311 10.9267 0.234294 10.7978C0.0842781 10.6689 0 10.494 0 10.3117V0.68826Z" fill="#26C6DA"/>
</svg>
