<svg width="25" height="20" viewBox="0 0 25 20" fill="none" xmlns="http://www.w3.org/2000/svg">
<path fill-rule="evenodd" clip-rule="evenodd" d="M21.1258 8H15.8751C15.6521 8.00024 15.4375 8.08157 15.2753 8.22737C15.1131 8.37318 15.0155 8.57246 15.0025 8.7845C14.9894 8.99653 15.0618 9.20532 15.205 9.36819C15.3482 9.53107 15.5512 9.63575 15.7727 9.66083L15.8751 9.66667H21.1258C21.3489 9.66643 21.5634 9.5851 21.7256 9.43929C21.8878 9.29349 21.9854 9.09421 21.9985 8.88217C22.0116 8.67014 21.9391 8.46135 21.796 8.29847C21.6528 8.1356 21.4497 8.03092 21.2282 8.00583L21.1258 8ZM18.5005 11.3333H15.8751C15.643 11.3333 15.4204 11.4211 15.2563 11.5774C15.0922 11.7337 15 11.9457 15 12.1667C15 12.3877 15.0922 12.5996 15.2563 12.7559C15.4204 12.9122 15.643 13 15.8751 13H18.5005C18.7326 13 18.9552 12.9122 19.1193 12.7559C19.2834 12.5996 19.3756 12.3877 19.3756 12.1667C19.3756 11.9457 19.2834 11.7337 19.1193 11.5774C18.9552 11.4211 18.7326 11.3333 18.5005 11.3333Z" fill="#0D47A1"/>
<path fill-rule="evenodd" clip-rule="evenodd" d="M4.99979 7.5C4.99979 6.50544 5.39487 5.55161 6.09814 4.84835C6.8014 4.14509 7.75522 3.75 8.74979 3.75C9.74435 3.75 10.6982 4.14509 11.4014 4.84835C12.1047 5.55161 12.4998 6.50544 12.4998 7.5C12.4998 8.49456 12.1047 9.44839 11.4014 10.1517C10.6982 10.8549 9.74435 11.25 8.74979 11.25C7.75522 11.25 6.8014 10.8549 6.09814 10.1517C5.39487 9.44839 4.99979 8.49456 4.99979 7.5ZM7.42729 12.5C6.64007 12.4997 5.87274 12.7472 5.23401 13.2073C4.59528 13.6675 4.11756 14.317 3.86854 15.0638L3.81354 15.23L3.80854 15.245C3.75604 15.4025 3.73979 15.4538 3.75604 15.4888C3.76354 15.505 3.78104 15.5175 3.80354 15.5375C3.84354 15.5688 3.90354 15.6175 3.98604 15.7312C4.10186 15.8918 4.25416 16.0226 4.43041 16.1128C4.60665 16.203 4.8018 16.25 4.99979 16.25H12.4998C12.6978 16.25 12.8929 16.203 13.0692 16.1128C13.2454 16.0226 13.3977 15.8918 13.5135 15.7312C13.5641 15.6577 13.6257 15.5924 13.696 15.5375C13.7198 15.5175 13.7348 15.505 13.7435 15.4875C13.761 15.4537 13.7435 15.4025 13.691 15.245L13.686 15.23L13.631 15.0638C13.3821 14.3172 12.9045 13.6678 12.2661 13.2077C11.6276 12.7476 10.8605 12.5 10.0735 12.5H7.42729Z" fill="#0D47A1"/>
<path d="M2.5 0.75H22.5C22.9641 0.75 23.4091 0.934506 23.7373 1.2627C24.0655 1.59088 24.25 2.03587 24.25 2.5V17.5C24.25 17.9641 24.0655 18.4091 23.7373 18.7373C23.4091 19.0655 22.9641 19.25 22.5 19.25H2.5C2.03587 19.25 1.59088 19.0655 1.2627 18.7373C0.934506 18.4091 0.75 17.9641 0.75 17.5V2.5C0.75 2.03587 0.934507 1.59088 1.2627 1.2627C1.59088 0.934507 2.03587 0.75 2.5 0.75Z" stroke="#0D47A1" stroke-width="1.5"/>
</svg>
