<svg width="18" height="18" viewBox="0 0 18 18" fill="none" xmlns="http://www.w3.org/2000/svg">
<path d="M0.599976 10.3661C0.599976 7.29715 0.599975 5.76227 1.55378 4.80928C2.50759 3.85628 4.04166 3.85547 7.11061 3.85547H10.3659C13.4349 3.85547 14.9698 3.85547 15.9228 4.80928C16.8758 5.76309 16.8766 7.29715 16.8766 10.3661C16.8766 13.4351 16.8766 14.9699 15.9228 15.9229C14.969 16.8759 13.4349 16.8767 10.3659 16.8767H7.11061C4.04166 16.8767 2.50678 16.8767 1.55378 15.9229C0.600789 14.9691 0.599976 13.4351 0.599976 10.3661Z" stroke="#0D47A1" stroke-opacity="0.5" stroke-width="1.2"/>
<path opacity="0.5" d="M11.9935 3.85542C11.9935 2.32053 11.9935 1.55391 11.5166 1.077C11.0397 0.600098 10.2731 0.600098 8.73817 0.600098C7.20329 0.600098 6.43666 0.600098 5.95975 1.077C5.48285 1.55391 5.48285 2.32053 5.48285 3.85542" stroke="#0D47A1" stroke-opacity="0.5" stroke-width="1.2"/>
<path opacity="0.5" d="M8.73819 13.0787C9.63748 13.0787 10.3659 12.4715 10.3659 11.7228C10.3659 10.9741 9.63748 10.3662 8.73819 10.3662C7.83891 10.3662 7.11053 9.75904 7.11053 9.0095C7.11053 8.26078 7.83891 7.65366 8.73819 7.65366M8.73819 13.0787C7.83891 13.0787 7.11053 12.4715 7.11053 11.7228M8.73819 13.0787V13.6215M8.73819 7.65366V7.11084M8.73819 7.65366C9.63748 7.65366 10.3659 8.26078 10.3659 9.0095" stroke="#0D47A1" stroke-opacity="0.5" stroke-width="1.2" stroke-linecap="round"/>
</svg>
