<svg width="29" height="29" viewBox="0 0 29 29" fill="none" xmlns="http://www.w3.org/2000/svg">
<path d="M13.1595 26.65H11.2667C6.427 26.65 4.0078 26.65 2.5039 25.1177C1 23.5855 1 21.1204 1 16.1875C1 11.2559 1 8.78948 2.5039 7.25723C4.0078 5.72498 6.427 5.72498 11.2667 5.72498H16.4008C21.2406 5.72498 23.6611 5.72498 25.165 7.25723C26.3219 8.43578 26.5879 10.1678 26.65 13.15" stroke="#0D47A1" stroke-opacity="0.5" stroke-width="2" stroke-linecap="round"/>
<path d="M25.323 25.3312L28 28.0001M26.7216 21.9602C26.7322 21.3283 26.6169 20.7005 26.3825 20.1136C26.148 19.5267 25.799 18.9923 25.3559 18.5417C24.9127 18.091 24.3843 17.7331 23.8014 17.4887C23.2185 17.2444 22.5928 17.1186 21.9608 17.1186C21.3288 17.1186 20.7031 17.2444 20.1202 17.4887C19.5373 17.7331 19.0088 18.091 18.5657 18.5417C18.1226 18.9923 17.7736 19.5267 17.5391 20.1136C17.3047 20.7005 17.1894 21.3283 17.2 21.9602C17.221 23.209 17.7319 24.3995 18.6224 25.2751C19.5129 26.1508 20.7119 26.6415 21.9608 26.6415C23.2097 26.6415 24.4086 26.1508 25.2992 25.2751C26.1897 24.3995 26.7005 23.209 26.7216 21.9602Z" stroke="#0D47A1" stroke-opacity="0.5" stroke-width="2" stroke-linecap="round" stroke-linejoin="round"/>
<path d="M19.9 5.725L19.765 5.3065C19.0967 3.2275 18.7633 2.188 17.9681 1.594C17.1716 1 16.1159 1 14.0005 1H13.6454C11.5327 1 10.4757 1 9.6805 1.594C8.884 2.188 8.55055 3.2275 7.8823 5.3065L7.75 5.725" stroke="#0D47A1" stroke-opacity="0.5" stroke-width="2"/>
</svg>
