<svg width="29" height="29" viewBox="0 0 29 29" fill="none" xmlns="http://www.w3.org/2000/svg">
<path d="M13.1595 26.65H11.2667C6.427 26.65 4.0078 26.65 2.5039 25.1177C1 23.5855 1 21.1204 1 16.1875C1 11.2559 1 8.78948 2.5039 7.25723C4.0078 5.72498 6.427 5.72498 11.2667 5.72498H16.4008C21.2406 5.72498 23.6611 5.72498 25.165 7.25723C26.3219 8.43578 26.5879 10.1678 26.65 13.15" stroke="#0D47A1" stroke-width="2" stroke-linecap="round"/>
<path d="M25.3228 25.3312L27.9999 28.0002M26.7214 21.9603C26.7321 21.3283 26.6168 20.7006 26.3823 20.1137C26.1479 19.5267 25.7989 18.9924 25.3557 18.5417C24.9126 18.0911 24.3842 17.7331 23.8013 17.4888C23.2184 17.2445 22.5927 17.1187 21.9607 17.1187C21.3286 17.1187 20.7029 17.2445 20.12 17.4888C19.5371 17.7331 19.0087 18.0911 18.5656 18.5417C18.1225 18.9924 17.7735 19.5267 17.539 20.1137C17.3045 20.7006 17.1893 21.3283 17.1999 21.9603C17.2209 23.209 17.7317 24.3995 18.6223 25.2752C19.5128 26.1508 20.7117 26.6416 21.9607 26.6416C23.2096 26.6416 24.4085 26.1508 25.2991 25.2752C26.1896 24.3995 26.7004 23.209 26.7214 21.9603Z" stroke="#0D47A1" stroke-width="2" stroke-linecap="round" stroke-linejoin="round"/>
<path d="M19.9 5.725L19.765 5.3065C19.0967 3.2275 18.7633 2.188 17.9681 1.594C17.1716 1 16.1159 1 14.0005 1H13.6454C11.5327 1 10.4757 1 9.6805 1.594C8.884 2.188 8.55055 3.2275 7.8823 5.3065L7.75 5.725" stroke="#0D47A1" stroke-width="2"/>
</svg>
