<svg width="19" height="19" viewBox="0 0 19 19" fill="none" xmlns="http://www.w3.org/2000/svg">
<path d="M13.7043 7.64766C14.3468 7.64766 14.963 7.39241 15.4174 6.93806M13.7043 7.64766C13.0617 7.64766 12.4455 7.39241 11.9911 6.93806M13.7043 7.64766V9.46452M15.4174 6.93806C15.8717 6.48371 16.127 5.86748 16.127 5.22494M15.4174 6.93806L16.702 8.22271M16.127 5.22494C16.127 4.58239 15.8717 3.96616 15.4174 3.51181M16.127 5.22494H17.9438M15.4174 3.51181C14.963 3.05746 14.3468 2.80221 13.7043 2.80221M15.4174 3.51181L16.702 2.22716M13.7043 2.80221C13.0617 2.80221 12.4455 3.05746 11.9911 3.51181M13.7043 2.80221V0.985352M11.9911 3.51181C11.5368 3.96616 11.2815 4.58239 11.2815 5.22494M11.9911 3.51181L10.7065 2.22716M11.2815 5.22494C11.2815 5.86748 11.5368 6.48371 11.9911 6.93806M11.2815 5.22494H9.46468M11.9911 6.93806L10.7065 8.22271M13.3003 0.985352H14.1082M16.4168 1.94196L16.9872 2.51237M17.9438 4.82102V5.62885M16.9872 7.9375L16.4168 8.50791M14.1082 9.46452H13.3003M10.9917 8.50791L10.4213 7.9375M9.46468 5.62885V4.82102M10.4213 2.51237L10.9917 1.94196M5.80322 11.5843L7.09283 10.6169C7.22446 10.5183 7.3748 10.4476 7.53467 10.4091C7.69455 10.3705 7.8606 10.365 8.02269 10.3927C8.18479 10.4205 8.33952 10.481 8.47744 10.5706C8.61537 10.6602 8.73359 10.7769 8.82489 10.9137C8.95713 11.1123 9.02769 11.3457 9.02769 11.5843C9.02769 11.823 8.95713 12.0563 8.82489 12.2549L7.55687 14.1566C7.16722 14.7407 6.60948 15.1928 5.95739 15.4531L4.06885 16.2093M6.38135 7.53744L3.6102 8.72529C2.79146 9.07598 2.13899 9.72817 1.78795 10.5468L0.880681 12.6635C0.695453 13.0956 0.599993 13.5608 0.600098 14.0309V17.9437" stroke="#26C6DA" stroke-width="1.2" stroke-linecap="round" stroke-linejoin="round"/>
<path d="M17.9438 11.0062V16.2094C17.9438 16.6693 17.7611 17.1105 17.4359 17.4357C17.1106 17.761 16.6695 17.9437 16.2095 17.9437H8.11572C7.65574 17.9437 7.21459 17.761 6.88933 17.4357C6.56408 17.1105 6.38135 16.6693 6.38135 16.2094V15.2497M6.38135 11.1504V2.33435C6.38135 1.87437 6.56408 1.43322 6.88933 1.10796C7.21459 0.782704 7.65574 0.599976 8.11572 0.599976H9.46468" stroke="#26C6DA" stroke-width="1.2" stroke-linecap="round" stroke-linejoin="round"/>
</svg>
