<svg width="20" height="19" viewBox="0 0 20 19" fill="none" xmlns="http://www.w3.org/2000/svg">
<path d="M10.2 11.7007C11.5807 11.7007 12.7 10.5814 12.7 9.20068C12.7 7.81997 11.5807 6.70068 10.2 6.70068C8.81924 6.70068 7.69995 7.81997 7.69995 9.20068C7.69995 10.5814 8.81924 11.7007 10.2 11.7007Z" stroke="#0D47A1" stroke-opacity="0.5" stroke-width="1.5" stroke-miterlimit="10" stroke-linecap="round" stroke-linejoin="round"/>
<path d="M0.699951 9.99315V8.40822C0.699951 7.47167 1.46457 6.69721 2.4091 6.69721C4.03728 6.69721 4.70295 5.54454 3.88436 4.13071C3.41659 3.32023 3.69545 2.26661 4.51404 1.79834L6.07027 0.906816C6.78091 0.483567 7.69845 0.735715 8.12124 1.44713L8.22019 1.61823C9.02979 3.03206 10.3611 3.03206 11.1797 1.61823L11.2787 1.44713C11.7015 0.735715 12.619 0.483567 13.3296 0.906816L14.8859 1.79834C15.7044 2.26661 15.9833 3.32023 15.5155 4.13071C14.697 5.54454 15.3626 6.69721 16.9908 6.69721C17.9263 6.69721 18.7 7.46266 18.7 8.40822V9.99315C18.7 10.9297 17.9353 11.7042 16.9908 11.7042C15.3626 11.7042 14.697 12.8568 15.5155 14.2707C15.9833 15.0901 15.7044 16.1348 14.8859 16.603L13.3296 17.4946C12.619 17.9178 11.7015 17.6657 11.2787 16.9542L11.1797 16.7831C10.3701 15.3693 9.03878 15.3693 8.22019 16.7831L8.12124 16.9542C7.69845 17.6657 6.78091 17.9178 6.07027 17.4946L4.51404 16.603C3.69545 16.1348 3.41659 15.0811 3.88436 14.2707C4.70295 12.8568 4.03728 11.7042 2.4091 11.7042C1.46457 11.7042 0.699951 10.9297 0.699951 9.99315Z" stroke="#0D47A1" stroke-opacity="0.5" stroke-width="1.4" stroke-miterlimit="10" stroke-linecap="round" stroke-linejoin="round"/>
</svg>
