<svg width="18" height="16" viewBox="0 0 18 16" fill="none" xmlns="http://www.w3.org/2000/svg">
<path d="M6.31426 0.600098H1.28569C1.10383 0.600098 0.929413 0.668174 0.800817 0.789352C0.67222 0.910529 0.599976 1.07488 0.599976 1.24625V13.9539C0.599976 14.1253 0.67222 14.2897 0.800817 14.4108C0.929413 14.532 1.10383 14.6001 1.28569 14.6001H6.31426M7.45712 4.90779H9.74283M7.45712 10.2924H9.74283M10.8857 0.600098H15.9143C16.0961 0.600098 16.2705 0.668174 16.3991 0.789352C16.5277 0.910529 16.6 1.07488 16.6 1.24625V13.9539C16.6 14.1253 16.5277 14.2897 16.3991 14.4108C16.2705 14.532 16.0961 14.6001 15.9143 14.6001H10.8857" stroke="#809DCA" stroke-width="1.2" stroke-linecap="round" stroke-linejoin="round"/>
</svg>
