<svg width="16" height="15" viewBox="0 0 16 15" fill="none" xmlns="http://www.w3.org/2000/svg">
<path d="M7.53208 3.15307C7.50905 3.11743 7.48001 3.06793 7.44597 3.02239C7.2257 2.72639 7.00943 2.42742 6.78214 2.13736C6.69503 2.02549 6.68702 1.95521 6.80317 1.85126C7.1466 1.54635 7.48001 1.23154 7.80842 0.911779C7.90555 0.816742 7.96562 0.799912 8.08577 0.88703C8.37613 1.0969 8.68151 1.28797 8.97989 1.48794C9.25623 1.67306 9.72282 1.49685 9.78089 1.18105C9.84397 0.842481 9.90605 0.503912 9.95611 0.163363C9.97513 0.0386268 10.0322 -0.000971939 10.1614 1.80292e-05C10.652 0.0039779 11.1436 0.00496787 11.6342 1.80292e-05C11.7574 -0.000971939 11.7944 0.0445666 11.8124 0.154453C11.8695 0.509852 11.9456 0.86228 12.0077 1.21669C12.0527 1.47309 12.5453 1.67504 12.7716 1.52457C13.092 1.31074 13.4134 1.09789 13.7268 0.87614C13.8259 0.805852 13.883 0.812782 13.9661 0.893959C14.3136 1.22857 14.664 1.5612 15.0234 1.88492C15.1206 1.97203 15.0965 2.01856 15.0284 2.10469C14.8012 2.39475 14.5839 2.69174 14.3666 2.98774C14.1894 3.2283 14.3896 3.66785 14.692 3.71438C15.0715 3.77279 15.449 3.8401 15.8294 3.89059C15.9636 3.90841 16.0007 3.9589 15.9997 4.07968C15.9937 4.52318 15.9907 4.96669 16.0007 5.41019C16.0047 5.56265 15.9326 5.60819 15.7914 5.62997C15.4039 5.69036 15.0174 5.75767 14.63 5.82499C14.4147 5.86261 14.2084 6.31305 14.3336 6.48233C14.5629 6.79219 14.7922 7.10205 15.0385 7.40003C15.1256 7.50497 15.1156 7.56041 15.0224 7.64356C14.677 7.95837 14.3306 8.27219 13.9992 8.59888C13.882 8.71471 13.8029 8.686 13.6908 8.60977C13.3864 8.40287 13.078 8.2029 12.7706 8.00094C12.5373 7.8475 12.0497 8.04945 12.0067 8.30882C11.9466 8.66422 11.8715 9.01665 11.8114 9.37205C11.7934 9.47599 11.7674 9.53044 11.6372 9.52846C11.1376 9.52153 10.637 9.52351 10.1373 9.52846C10.0112 9.52945 9.97413 9.47401 9.95711 9.36908C9.89603 9.00576 9.83095 8.64244 9.75986 8.2811C9.71381 8.04945 9.2312 7.87027 9.02795 8.00292C8.71255 8.20883 8.39315 8.41178 8.08177 8.62264C7.97063 8.69887 7.89353 8.70283 7.7924 8.60383C7.45698 8.28011 7.11456 7.96233 6.76912 7.64752C6.673 7.55942 6.68302 7.49408 6.75811 7.39904C6.9914 7.10304 7.21568 6.80011 7.44096 6.49817C7.57513 6.318 7.37789 5.86855 7.1466 5.82598C6.77013 5.75767 6.39265 5.68838 6.01318 5.63294C5.85398 5.60918 5.79491 5.55374 5.79991 5.39535C5.81293 4.96075 5.81093 4.52516 5.79991 4.08958C5.79691 3.95197 5.84797 3.90643 5.98414 3.88762C6.32957 3.83912 6.672 3.75398 7.01844 3.7322C7.26074 3.71735 7.35185 3.60449 7.41493 3.42135C7.44397 3.33621 7.48702 3.25503 7.53208 3.15406V3.15307ZM8.37713 6.43679C8.33909 6.49223 8.30905 6.54173 8.27401 6.58826C8.09578 6.82189 7.92957 7.06344 7.73433 7.28321C7.60016 7.43468 7.64822 7.52378 7.78539 7.62376C7.90254 7.70989 7.96862 7.896 8.18289 7.72375C8.40717 7.54358 8.6715 7.40696 8.9068 7.23768C9.04197 7.14066 9.15611 7.1169 9.30229 7.21293C9.57063 7.38914 9.87401 7.49408 10.1924 7.55249C10.3496 7.58119 10.4067 7.66039 10.4277 7.79899C10.4718 8.09004 10.5519 8.37812 10.5739 8.67016C10.5929 8.93151 10.7821 8.82756 10.9133 8.84439C11.0555 8.86221 11.1897 8.8632 11.2177 8.67214C11.2597 8.37317 11.3338 8.07717 11.3739 7.77721C11.3909 7.64752 11.45 7.58614 11.5761 7.55942C11.9206 7.48715 12.241 7.36043 12.5373 7.18323C12.6365 7.12383 12.7126 7.12284 12.8137 7.19313C13.087 7.38419 13.3804 7.55051 13.6497 7.74652C13.836 7.88215 13.902 7.72771 13.9861 7.64554C14.0662 7.56734 14.2485 7.51487 14.1003 7.33865C13.9 7.10106 13.7328 6.83872 13.5316 6.60212C13.4274 6.47936 13.4104 6.39422 13.5045 6.25761C13.6708 6.01705 13.8019 5.7547 13.853 5.46959C13.886 5.28447 13.9952 5.21715 14.1804 5.19339C14.4828 5.15379 14.7801 5.08252 15.0835 5.05381C15.3739 5.02609 15.2397 4.83304 15.2667 4.70336C15.2978 4.55684 15.2337 4.47962 15.0665 4.45785C14.7471 4.41726 14.4307 4.35291 14.1103 4.31826C13.9601 4.30143 13.895 4.2351 13.87 4.11136C13.8049 3.79358 13.6637 3.50451 13.4775 3.23523C13.4094 3.13723 13.4144 3.06397 13.4885 2.97091C13.6467 2.7749 13.7939 2.57097 13.9441 2.36901C14.1874 2.04034 14.1834 2.04331 13.871 1.77206C13.7889 1.70177 13.7438 1.69682 13.6567 1.76018C13.3784 1.95818 13.09 2.14528 12.8077 2.33931C12.7346 2.3898 12.6715 2.43336 12.5784 2.37099C12.269 2.1631 11.9156 2.04232 11.5511 1.95521C11.4239 1.92452 11.3909 1.86809 11.3749 1.75424C11.3318 1.45527 11.2597 1.15927 11.2177 0.8603C11.1907 0.670227 11.0605 0.669237 10.9153 0.683096C10.7781 0.695966 10.5959 0.607858 10.5749 0.8603C10.5499 1.15333 10.4718 1.44141 10.4327 1.73345C10.4147 1.86611 10.3656 1.92749 10.2194 1.95917C9.87801 2.0344 9.5516 2.15419 9.25723 2.33535C9.1511 2.40069 9.07601 2.39673 8.97688 2.32545C8.76162 2.17102 8.53734 2.02846 8.31606 1.88195C8.00767 1.67702 8.01168 1.68197 7.74234 1.93442C7.63921 2.03143 7.64121 2.09974 7.72532 2.20468C7.91856 2.44821 8.09178 2.7056 8.28602 2.94814C8.36612 3.04813 8.38214 3.12337 8.30504 3.23028C8.1118 3.49659 7.97964 3.7916 7.91255 4.10641C7.88352 4.24302 7.81844 4.29648 7.67426 4.3143C7.37188 4.35093 7.0715 4.40835 6.77013 4.45191C6.63095 4.4717 6.50079 4.49348 6.53984 4.66871C6.57188 4.81225 6.42169 5.02807 6.73608 5.06074C7.03045 5.09142 7.32081 5.15082 7.61218 5.19735C7.77438 5.22309 7.89153 5.26665 7.92157 5.45969C7.96862 5.76064 8.12582 6.0309 8.29103 6.29226C8.32207 6.34076 8.3511 6.39026 8.38114 6.43877L8.37713 6.43679Z" fill="#0D47A1" fill-opacity="0.5"/>
<path d="M4.71755 12.9279C5.02493 12.9279 5.33132 12.9328 5.6377 12.9259C5.76386 12.9229 5.80391 12.9635 5.80291 13.0804C5.7979 13.6634 5.7979 14.2465 5.80291 14.8286C5.80391 14.9474 5.75785 14.9781 5.6357 14.986C5.07299 15.0217 5.07299 15.0246 5.07299 14.5069C5.07299 14.2772 5.06398 14.0466 5.076 13.8179C5.08501 13.6595 5.03394 13.61 4.85772 13.608C4.42118 13.6031 3.98263 13.6506 3.54708 13.5743C2.71004 13.4278 2.07324 12.8111 1.9551 12.0171C1.84496 11.2717 1.73983 10.5252 1.63469 9.7798C1.61667 9.65011 1.56961 9.55904 1.42443 9.50063C1.14408 9.38777 0.876747 9.24918 0.603405 9.12147C0.00565821 8.8423 -0.165556 8.30771 0.168862 7.7662C0.580377 7.09995 0.973868 6.42381 1.40941 5.77241C1.61767 5.46057 1.62668 5.12299 1.69076 4.78838C1.88601 3.77168 2.20841 2.8025 2.88726 1.96895C3.70128 0.970069 4.80566 0.419647 6.09727 0.166215C6.22443 0.141466 6.35459 0.124637 6.48376 0.108797C6.69902 0.0830579 6.85121 0.173145 6.89327 0.368169C6.93732 0.576062 6.82018 0.718618 6.60391 0.769106C6.36761 0.823554 6.12331 0.851273 5.88701 0.908692C4.24896 1.30765 3.21867 2.30455 2.69802 3.78653C2.50378 4.33794 2.36661 4.9042 2.31955 5.48531C2.30553 5.6546 2.22844 5.79815 2.13933 5.94169C1.69877 6.64754 1.25923 7.35438 0.821678 8.0622C0.658474 8.32553 0.686509 8.40374 0.976872 8.5364C1.34533 8.70469 1.71379 8.87398 2.08326 9.04029C2.1994 9.09276 2.26949 9.15711 2.28851 9.29273C2.41467 10.1847 2.54683 11.0757 2.69001 11.9656C2.77913 12.519 3.30378 12.9259 3.90053 12.9269C4.17187 12.9269 4.44421 12.9269 4.71555 12.9269L4.71755 12.9279Z" fill="#0D47A1" fill-opacity="0.5"/>
<path d="M11.6272 13.5783C11.6001 12.6735 11.6372 11.7795 12.0027 10.9202C12.2009 10.4539 12.4452 10.0144 12.7466 9.60158C12.8948 9.39864 13.107 9.34815 13.2833 9.462C13.4625 9.57882 13.4895 9.77483 13.3423 9.98074C12.8637 10.648 12.5263 11.3687 12.4042 12.1686C12.3431 12.5675 12.3711 12.9704 12.3671 13.3724C12.3621 13.8396 12.3551 14.3079 12.3571 14.7752C12.3571 14.9227 12.3281 14.991 12.1408 14.99C11.6282 14.988 11.6292 14.9979 11.6292 14.5138C11.6292 14.202 11.6292 13.8901 11.6292 13.5783H11.6272Z" fill="#0D47A1" fill-opacity="0.5"/>
<path d="M10.9043 3.0669C11.9045 3.0669 12.7175 3.83313 12.7155 4.77162C12.7135 5.69922 11.8815 6.4714 10.8893 6.46744C9.90102 6.46348 9.06297 5.67447 9.07499 4.75776C9.087 3.8163 9.89902 3.06591 10.9053 3.0669H10.9043ZM10.8933 3.75393C10.2835 3.75492 9.8009 4.19645 9.79989 4.75281C9.79889 5.31907 10.2925 5.78139 10.8993 5.78238C11.496 5.78238 11.9846 5.33194 11.9906 4.77558C11.9966 4.20338 11.513 3.75393 10.8933 3.75492V3.75393Z" fill="#0D47A1" fill-opacity="0.5"/>
</svg>
