<svg width="20" height="19" viewBox="0 0 20 19" fill="none" xmlns="http://www.w3.org/2000/svg">
<path d="M10.2061 0.599609C10.9551 0.599665 13.3781 0.8096 14.5254 3.38281L14.5264 3.38477C14.6933 3.75574 14.7758 4.32328 14.792 5.02246C14.8077 5.70104 14.7607 6.43186 14.7158 7.11035L14.71 7.15625L14.7061 7.18262L14.7051 7.20996C14.7014 7.29462 14.696 7.37861 14.6904 7.46777C14.685 7.5553 14.68 7.6487 14.6758 7.74414L14.6621 8.0498L14.9014 8.24023C14.995 8.31473 15.2825 8.53765 15.8018 8.54395H15.8252C16.2223 8.53284 16.6149 8.40385 17 8.23047L17.001 8.23145C17.0249 8.22107 17.0511 8.21535 17.0771 8.21484C17.1123 8.21527 17.1675 8.22552 17.2402 8.25L17.248 8.25195C17.1651 8.31295 17.0257 8.39574 16.7969 8.48828C16.7145 8.51922 16.6619 8.5401 16.5996 8.55469L16.5801 8.55957L16.5605 8.56543C16.3509 8.62971 16.037 8.72736 15.7451 8.88086C15.4597 9.03103 15.1102 9.27786 14.9297 9.68652C14.7399 10.1059 14.8151 10.551 14.9707 10.9297L15.043 11.0879C15.0513 11.1052 15.0611 11.1218 15.0713 11.1387C15.1874 11.395 15.5447 12.1087 16.1787 12.8535C16.7921 13.5742 17.6922 14.3546 18.9062 14.7549C18.5354 14.8879 18.0099 15.0156 17.3223 15.1221H17.3193C16.9117 15.187 16.7483 15.5364 16.6953 15.6641C16.6275 15.8274 16.5808 16.0287 16.542 16.208L16.541 16.2139C16.528 16.2769 16.51 16.3388 16.4951 16.4014C16.4632 16.3965 16.431 16.3926 16.3994 16.3857L16.3975 16.3848C16.0915 16.3197 15.7809 16.2795 15.4688 16.2637L15.1562 16.2559C14.9306 16.2565 14.7052 16.271 14.4814 16.2988L14.2578 16.3311C13.546 16.4474 12.9549 16.8836 12.4834 17.2178C11.7536 17.7159 11.0979 18.165 10.125 18.165H9.87109C8.89013 18.165 8.2363 17.7156 7.52051 17.2158C7.04606 16.8797 6.46068 16.4471 5.74512 16.3262H5.74609C5.52128 16.2877 5.29417 16.2646 5.06641 16.2559L4.8418 16.252C4.31779 16.252 3.90098 16.3297 3.62305 16.3857C3.5743 16.3943 3.53306 16.4011 3.49805 16.4072C3.48511 16.3502 3.47281 16.2902 3.45898 16.2246L3.45801 16.2217L3.39258 15.9434C3.36757 15.8502 3.33881 15.7586 3.30469 15.6768C3.25025 15.5462 3.08696 15.2025 2.68359 15.1357L2.67578 15.1348C1.99701 15.0313 1.47364 14.9047 1.10254 14.7715C2.1153 14.4386 3.022 13.8063 3.79688 12.9121C4.39575 12.2212 4.75258 11.544 4.89941 11.2275L4.95801 11.1084C5.14181 10.73 5.24243 10.3079 5.13379 9.89551L5.07422 9.71973C4.89903 9.30022 4.54674 9.05108 4.25977 8.90137C3.96771 8.74903 3.64914 8.65233 3.44141 8.58789L3.41992 8.58203L3.18359 8.50293C3.03069 8.44112 2.86752 8.36037 2.75098 8.27344C2.76473 8.26783 2.77822 8.26021 2.79297 8.25586C2.83176 8.24442 2.86398 8.24121 2.88477 8.24121H2.88574C3.30901 8.43281 3.73589 8.5527 4.1416 8.55273C4.67254 8.55273 4.99805 8.34766 5.15039 8.19531L5.33789 8.00781L5.3252 7.74316L5.28906 7.13574C5.24391 6.45084 5.19836 5.71283 5.21484 5.0293C5.23169 4.33151 5.31308 3.76493 5.47852 3.39258C6.62603 0.822605 9.05115 0.608398 9.7998 0.608398L9.81348 0.607422L10.1689 0.599609H10.2061Z" stroke="#0D47A1" stroke-opacity="0.5" stroke-width="1.2"/>
</svg>
