<svg width="16" height="18" viewBox="0 0 16 18" fill="none" xmlns="http://www.w3.org/2000/svg">
<path d="M5.03763 7.33038C2.64989 7.50181 0.599998 9.26143 0.599998 11.9582C0.599998 14.522 2.58689 16.6001 5.03763 16.6001C7.48837 16.6001 9.47563 14.522 9.47563 11.9582L9.34742 6.17153C10.4626 7.06143 12.2439 7.59934 13.8923 7.68543C14.187 7.70067 14.4699 7.56238 14.5388 7.26524C14.5738 7.114 14.6 6.91705 14.6 6.666C14.6 6.41496 14.5742 6.218 14.5388 6.06677C14.4699 5.76962 14.1866 5.64086 13.8926 5.61039C11.6637 5.37991 9.56479 3.51515 9.26489 1.31324C9.22658 1.03515 9.07589 0.778005 8.81247 0.707148C8.54595 0.635784 8.27173 0.599812 7.99642 0.600101C7.72074 0.599715 7.44614 0.635687 7.17926 0.707148C6.91658 0.778005 6.75963 1.03324 6.75337 1.31439L6.51684 11.9582C6.51684 12.8127 5.85479 13.5056 5.03763 13.5056C4.22047 13.5056 3.55842 12.8127 3.55842 11.9582C3.55842 11.0698 4.27684 10.498 5.03763 10.3517" stroke="#0D47A1" stroke-opacity="0.5" stroke-width="1.2" stroke-linecap="round" stroke-linejoin="round"/>
</svg>
