<svg width="21" height="17" viewBox="0 0 21 17" fill="none" xmlns="http://www.w3.org/2000/svg">
<path d="M1.37548 7.17908C6.74828 4.8259 10.3301 3.27448 12.1211 2.52483C17.2405 0.384442 18.303 0.0127037 18.9969 0.000109733C19.1495 -0.00235115 19.4892 0.0355751 19.7109 0.215799C19.8952 0.367794 19.9471 0.573351 19.973 0.717674C19.996 0.861853 20.0277 1.19045 20.0018 1.44696C19.7253 4.37686 18.5247 11.4868 17.9143 14.7684C17.658 16.157 17.1484 16.6225 16.656 16.668C15.5849 16.767 14.7729 15.9569 13.7364 15.2739C12.1153 14.2048 11.1997 13.5394 9.62471 12.4963C7.80499 11.2908 8.98551 10.6281 10.0221 9.54529C10.2927 9.26186 15.009 4.94952 15.0983 4.55839C15.1098 4.50946 15.1213 4.32706 15.0119 4.23094C14.9054 4.13454 14.747 4.16754 14.6318 4.1936C14.4677 4.23066 11.8792 5.95269 6.8577 9.35942C6.12347 9.86723 5.45835 10.1148 4.85945 10.1017C4.20297 10.0876 2.93607 9.72769 1.99454 9.42022C0.842811 9.04298 -0.0756902 8.84351 0.00493057 8.20281C0.0452409 7.86929 0.503052 7.52795 1.37548 7.17908Z" fill="white"/>
</svg>
