<svg width="21" height="21" viewBox="0 0 21 21" fill="none" xmlns="http://www.w3.org/2000/svg">
<path d="M10.0066 0C7.28927 0 6.94818 0.0119067 5.88097 0.060434C4.81576 0.109261 4.08864 0.277856 3.45248 0.525296C2.7943 0.780839 2.23608 1.12273 1.67996 1.67904C1.12334 2.23526 0.781448 2.79347 0.525101 3.45134C0.276959 4.0877 0.108162 4.81511 0.0602344 5.87981C0.0125071 6.94711 0 7.2883 0 10.0057C0 12.7232 0.0120069 13.0632 0.0604346 14.1304C0.109463 15.1956 0.278059 15.9227 0.525301 16.5588C0.781047 17.217 1.12294 17.7752 1.67926 18.3313C2.23528 18.8879 2.7935 19.2306 3.45118 19.4862C4.08784 19.7336 4.81506 19.9022 5.88007 19.951C6.94738 19.9996 7.28817 20.0115 10.0054 20.0115C12.7231 20.0115 13.0631 19.9996 14.1303 19.951C15.1955 19.9022 15.9234 19.7336 16.5601 19.4862C17.218 19.2306 17.7754 18.8879 18.3313 18.3313C18.8879 17.7752 19.2297 17.217 19.4862 16.5591C19.7321 15.9227 19.901 15.1954 19.951 14.1306C19.999 13.0634 20.0115 12.7232 20.0115 10.0057C20.0115 7.2883 19.999 6.94731 19.951 5.88001C19.901 4.81481 19.7321 4.0878 19.4862 3.45164C19.2297 2.79347 18.8879 2.23526 18.3313 1.67904C17.7748 1.12253 17.2182 0.780639 16.5595 0.525396C15.9216 0.277856 15.1941 0.109161 14.1289 0.060434C13.0616 0.0119067 12.7218 0 10.0035 0H10.0066ZM9.10902 1.80311C9.37547 1.80271 9.67274 1.80311 10.0066 1.80311C12.6783 1.80311 12.9948 1.81272 14.0498 1.86065C15.0254 1.90527 15.5549 2.06826 15.9076 2.20524C16.3746 2.38654 16.7075 2.60337 17.0575 2.95366C17.4077 3.30386 17.6244 3.63735 17.8062 4.10431C17.9432 4.45651 18.1064 4.98601 18.1508 5.96156C18.1987 7.01635 18.2091 7.33313 18.2091 10.0034C18.2091 12.6737 18.1987 12.9906 18.1508 14.0453C18.1062 15.0209 17.9432 15.5504 17.8062 15.9026C17.6249 16.3696 17.4077 16.7021 17.0575 17.0521C16.7073 17.4023 16.3748 17.619 15.9076 17.8004C15.5553 17.938 15.0254 18.1006 14.0498 18.1452C12.995 18.1931 12.6783 18.2035 10.0066 18.2035C7.3349 18.2035 7.01822 18.1931 5.96352 18.1452C4.98796 18.1002 4.45845 17.9372 4.10545 17.8002C3.63858 17.6188 3.30499 17.4021 2.95479 17.0519C2.60459 16.7017 2.38787 16.369 2.20606 15.9018C2.06909 15.5496 1.90589 15.0201 1.86147 14.0445C1.81354 12.9897 1.80393 12.6729 1.80393 10.0009C1.80393 7.32892 1.81354 7.01385 1.86147 5.95905C1.90609 4.9835 2.06909 4.45401 2.20606 4.10131C2.38747 3.63435 2.60459 3.30086 2.95489 2.95066C3.30519 2.60046 3.63858 2.38364 4.10555 2.20194C4.45825 2.06436 4.98796 1.90177 5.96352 1.85694C6.88654 1.81522 7.24425 1.80271 9.10902 1.80061V1.80311ZM15.3477 3.46445C14.6848 3.46445 14.147 4.00175 14.147 4.66473C14.147 5.3276 14.6848 5.8654 15.3477 5.8654C16.0106 5.8654 16.5484 5.3276 16.5484 4.66473C16.5484 4.00185 16.0106 3.46405 15.3477 3.46405V3.46445ZM10.0066 4.86734C7.16901 4.86734 4.86829 7.16803 4.86829 10.0057C4.86829 12.8434 7.16901 15.143 10.0066 15.143C12.8444 15.143 15.1443 12.8434 15.1443 10.0057C15.1443 7.16813 12.8442 4.86734 10.0064 4.86734H10.0066ZM10.0066 6.67045C11.8486 6.67045 13.3419 8.1636 13.3419 10.0057C13.3419 11.8477 11.8486 13.341 10.0066 13.341C8.16468 13.341 6.67142 11.8477 6.67142 10.0057C6.67142 8.1636 8.16458 6.67045 10.0066 6.67045Z" fill="white"/>
</svg>
