<svg width="13" height="25" viewBox="0 0 13 25" fill="none" xmlns="http://www.w3.org/2000/svg">
<path d="M9.23438 1C9.97938 1 10.7545 1.06869 11.3525 1.13965C11.4055 1.14594 11.4571 1.15392 11.5068 1.16016V2.99121H10.6641C9.52999 2.99121 8.62531 3.36272 8.02637 4.07422C7.45394 4.75446 7.28125 5.60419 7.28125 6.33789V10.1553H11.1758L10.8252 12.499H7.28125V23.1152C6.85439 23.1564 6.42609 23.1808 5.99707 23.1807H5.99609C5.56708 23.1808 5.13878 23.1564 4.71191 23.1152V12.499H1V10.1553H4.71191V5.8457C4.71191 4.1549 5.19945 2.96819 5.93848 2.20801C6.67516 1.4503 7.7747 1 9.23438 1Z" stroke="white" stroke-width="2"/>
</svg>
