<svg width="21" height="23" viewBox="0 0 21 23" fill="none" xmlns="http://www.w3.org/2000/svg">
<path d="M18.3083 5.82697C16.1221 5.36726 14.5112 3.52841 14.3962 1.34478V1H10.8293V15.366C10.8293 17.0899 9.44851 18.3541 7.83764 18.3541C6.91714 18.3541 5.99665 17.8944 5.42134 17.2048C4.27072 15.8257 4.50084 13.8719 5.88159 12.8376C6.57196 12.3779 7.14727 12.3779 7.9527 12.3779V8.70016C4.27072 8.24045 1.62429 10.7689 1.04898 14.3316C0.818858 16.4003 1.39417 18.3541 2.88997 19.8482C5.42134 22.4915 9.67863 22.4915 12.3251 19.9631C13.5907 18.6989 14.2811 16.975 14.2811 15.251V8.0106C15.7769 9.04495 17.5028 9.61959 19.3438 9.61959V5.9419C18.9987 5.9419 18.6535 5.9419 18.3083 5.82697Z" stroke="white" stroke-width="2" stroke-miterlimit="10" stroke-linecap="round" stroke-linejoin="round"/>
</svg>
