<svg width="18" height="20" viewBox="0 0 18 20" fill="none" xmlns="http://www.w3.org/2000/svg">
<path d="M1.60001 7.8001C1.60001 4.4062 1.60001 2.7088 2.65481 1.6549C3.70961 0.600998 5.40611 0.600098 8.80001 0.600098H10.15C13.5439 0.600098 15.2413 0.600098 16.2952 1.6549C17.3491 2.7097 17.35 4.4062 17.35 7.8001V11.4001C17.35 14.794 17.35 16.4914 16.2952 17.5453C15.2404 18.5992 13.5439 18.6001 10.15 18.6001H8.80001C5.40611 18.6001 3.70871 18.6001 2.65481 17.5453C1.60091 16.4905 1.60001 14.794 1.60001 11.4001V7.8001Z" stroke="#0D47A1" stroke-opacity="0.5" stroke-width="1.2"/>
<path d="M2.85001 4.2002H0.600006M2.85001 9.6002H0.600006M2.85001 15.0002H0.600006" stroke="#0D47A1" stroke-opacity="0.5" stroke-width="1.2" stroke-linecap="round" stroke-linejoin="round"/>
<path d="M14.575 10.2876L14.975 8.6001H15.6L14.8917 11.6001H14.2667L13.8667 9.9126L13.4667 11.6001H12.8417L12.1333 8.6001H12.7583L13.1583 10.2876L13.5583 8.6001H14.175L14.575 10.2876ZM10.7083 8.6001H11.3333L10.625 11.6001H10L9.60001 9.9126L9.20001 11.6001H8.57501L7.86667 8.6001H8.49167L8.89167 10.2876L9.29167 8.6001H9.90834L10.3083 10.2876L10.7083 8.6001ZM6.44167 8.6001H7.06667L6.35834 11.6001H5.73334L5.33334 9.9126L4.93334 11.6001H4.30834L3.60001 8.6001H4.22501L4.62501 10.2876L5.02501 8.6001H5.64167L6.04167 10.2876L6.44167 8.6001Z" fill="#0D47A1" fill-opacity="0.4"/>
</svg>
