<svg width="18" height="20" viewBox="0 0 18 20" fill="none" xmlns="http://www.w3.org/2000/svg">
<path d="M1.60001 7.8001C1.60001 4.4062 1.60001 2.7088 2.65481 1.6549C3.70961 0.600998 5.40611 0.600098 8.80001 0.600098H10.15C13.5439 0.600098 15.2413 0.600098 16.2952 1.6549C17.3491 2.7097 17.35 4.4062 17.35 7.8001V11.4001C17.35 14.794 17.35 16.4914 16.2952 17.5453C15.2404 18.5992 13.5439 18.6001 10.15 18.6001H8.80001C5.40611 18.6001 3.70871 18.6001 2.65481 17.5453C1.60091 16.4905 1.60001 14.794 1.60001 11.4001V7.8001Z" stroke="#0D47A1" stroke-opacity="0.5" stroke-width="1.2"/>
<path d="M2.85001 4.2002H0.600006M2.85001 9.6002H0.600006M2.85001 15.0002H0.600006" stroke="#0D47A1" stroke-opacity="0.5" stroke-width="1.2" stroke-linecap="round" stroke-linejoin="round"/>
<path d="M13.1427 6.05512C12.6819 5.59217 12.1332 5.22511 11.5284 4.9753C10.9236 4.7255 10.2749 4.59797 9.62011 4.60012C6.87639 4.60012 4.64021 6.82512 4.64021 9.55511C4.64021 10.4301 4.87136 11.2801 5.30352 12.0301L4.60001 14.6001L7.2382 13.9101C7.96684 14.3051 8.78594 14.5151 9.62011 14.5151C12.3638 14.5151 14.6 12.2901 14.6 9.56011C14.6 8.23512 14.0824 6.99012 13.1427 6.05512ZM9.62011 13.6751C8.87639 13.6751 8.14774 13.4751 7.50955 13.1001L7.3588 13.0101L5.79096 13.4201L6.20805 11.9001L6.10754 11.7451C5.69425 11.0886 5.47484 10.3297 5.47438 9.55511C5.47438 7.28512 7.33367 5.43512 9.61508 5.43512C10.7206 5.43512 11.7608 5.86512 12.5397 6.64512C12.9254 7.02705 13.2311 7.48139 13.439 7.98178C13.6469 8.48217 13.7529 9.01866 13.7508 9.56011C13.7608 11.8301 11.9015 13.6751 9.62011 13.6751ZM11.8915 10.5951C11.7658 10.5351 11.1528 10.2351 11.0422 10.1901C10.9266 10.1501 10.8462 10.1301 10.7608 10.2501C10.6754 10.3751 10.4392 10.6551 10.3688 10.7351C10.2985 10.8201 10.2231 10.8301 10.0975 10.7651C9.97186 10.7051 9.56985 10.5701 9.09749 10.1501C8.72563 9.82011 8.4794 9.41511 8.40403 9.29011C8.33367 9.16511 8.39398 9.10011 8.4593 9.03511C8.51458 8.98011 8.58493 8.89011 8.64523 8.82011C8.70553 8.75011 8.73066 8.69511 8.77086 8.61511C8.81106 8.53011 8.79096 8.46011 8.76081 8.40011C8.73066 8.34011 8.4794 7.73012 8.3789 7.48012C8.2784 7.24012 8.17287 7.27012 8.09749 7.26512H7.85629C7.77086 7.26512 7.64021 7.29512 7.52463 7.42012C7.41408 7.54512 7.09247 7.84512 7.09247 8.45511C7.09247 9.06511 7.5397 9.65511 7.60001 9.73511C7.66031 9.82011 8.4794 11.0701 9.72563 11.6051C10.0221 11.7351 10.2533 11.8101 10.4342 11.8651C10.7307 11.9601 11.002 11.9451 11.2181 11.9151C11.4593 11.8801 11.9568 11.6151 12.0573 11.3251C12.1628 11.0351 12.1628 10.7901 12.1276 10.7351C12.0925 10.6801 12.0171 10.6551 11.8915 10.5951Z" fill="#0D47A1" fill-opacity="0.5"/>
</svg>
