<svg width="18" height="18" viewBox="0 0 18 18" fill="none" xmlns="http://www.w3.org/2000/svg">
<path d="M6.2614 10.8614V6.9692H5.78301C5.31231 6.96916 4.85494 7.12554 4.48281 7.41377C4.11068 7.702 3.84488 8.10572 3.7272 8.56148L2.72301 12.4537V12.6306H8.0306V13.661C8.0306 14.5385 8.0306 15.1075 8.42265 15.9999C8.42265 15.9999 8.86141 16.8767 9.44595 16.8767M6.61524 16.8767H2.72301C2.15995 16.8767 1.61994 16.653 1.2218 16.2549C0.823652 15.8567 0.599976 15.3167 0.599976 14.7537V2.72313C0.599976 2.16007 0.823652 1.62007 1.2218 1.22192C1.61994 0.823774 2.15995 0.600098 2.72301 0.600098H14.7535C15.3166 0.600098 15.8566 0.823774 16.2547 1.22192C16.6529 1.62007 16.8766 2.16007 16.8766 2.72313V14.7537C16.8766 15.3167 16.6529 15.8567 16.2547 16.2549C15.8566 16.653 15.3166 16.8767 14.7535 16.8767H11.9228V10.5076M8.73827 10.5076H15.1074" stroke="#0D47A1" stroke-opacity="0.5" stroke-width="1.2"/>
<ellipse cx="5.54104" cy="3.79846" rx="1.45327" ry="1.56506" fill="#809DCA"/>
</svg>
